<?xml version="1.0" encoding="utf-8"?>
<!-- Generator: Adobe Illustrator 23.0.2, SVG Export Plug-In . SVG Version: 6.00 Build 0)  -->
<svg version="1.1" id="Layer_1" xmlns="http://www.w3.org/2000/svg" xmlns:xlink="http://www.w3.org/1999/xlink" x="0px" y="0px"
	 viewBox="0 0 595.3 297.9" style="enable-background:new 0 0 595.3 297.9;" xml:space="preserve">
<style type="text/css">
	.st0{clip-path:url(#SVGID_2_);}
	.st1{opacity:0.1;}
	.st2{opacity:0.1;fill:#3D3C54;enable-background:new    ;}
	.st3{opacity:0.1;fill:#D58655;enable-background:new    ;}
	.st4{opacity:0.1;fill:#040006;enable-background:new    ;}
	.st5{fill:#3D3C54;}
	.st6{opacity:0.15;fill:#040006;enable-background:new    ;}
	.st7{fill:none;stroke:#3D3C54;stroke-width:4;stroke-miterlimit:10;}
	.st8{fill:#D58655;}
	.st9{fill:url(#SVGID_3_);}
	.st10{fill:#2E2D40;}
	.st11{fill:#E3B5B9;}
	.st12{fill:#E7E7EF;}
	.st13{fill:#CB676D;}
</style>
<g>
	<defs>
		<rect id="SVGID_1_" x="14" y="-39" width="581.3" height="336.9"/>
	</defs>
	<clipPath id="SVGID_2_">
		<use xlink:href="#SVGID_1_"  style="overflow:visible;"/>
	</clipPath>
	<g class="st0">
		<g class="st1">
			<path class="st2" d="M441.4,292.9c6.2,0,11.2-6.6,11.2-14.7s-5-14.7-11.2-14.7c-6.2,0-11.2,6.6-11.2,14.7
				S435.2,292.9,441.4,292.9z"/>
			<path class="st2" d="M450.3,215.5c1.6-2.7,2.4-5.8,2.4-9c0-8.1-5-14.7-11.2-14.7c-6.2,0-11.2,6.6-11.2,14.7c0,3.1,0.8,6.2,2.3,9
				c-1.5,2.7-2.3,5.8-2.3,9c0,3.1,0.8,6.2,2.3,9c-1.5,2.7-2.3,5.8-2.3,9c0,3.1,0.8,6.2,2.3,9c-1.6,2.7-2.4,5.8-2.3,9
				c0,8.1,5,14.7,11.2,14.7s11.2-6.6,11.2-14.7c0-3.1-0.8-6.2-2.3-9c1.5-2.7,2.3-5.8,2.3-9c0-3.1-0.8-6.2-2.3-9
				c1.5-2.7,2.3-5.8,2.3-9C452.6,221.3,451.8,218.2,450.3,215.5L450.3,215.5z"/>
			<path class="st2" d="M441.4,203.2c6.2,0,11.2-6.6,11.2-14.7s-5-14.7-11.2-14.7c-6.2,0-11.2,6.6-11.2,14.7
				S435.2,203.2,441.4,203.2z"/>
			<path class="st2" d="M441.4,185.3c6.2,0,11.2-6.6,11.2-14.7s-5-14.7-11.2-14.7c-6.2,0-11.2,6.6-11.2,14.7
				S435.2,185.3,441.4,185.3z"/>
			<path class="st3" d="M483.4,47.9c1.5-2,2.9-4,4.2-6.1l-29.5-4.8l31.9,0.2c3.1-6.6,4.7-13.9,4.9-21.2c0.2-7.3-1.1-14.6-3.9-21.4
				l-42.8,22.2l39.5-29c-3.7-6.4-8.7-11.9-14.6-16.3c-5.9-4.4-12.7-7.5-19.9-9.1c-7.2-1.6-14.7-1.8-21.9-0.4
				c-7.3,1.4-14.2,4.2-20.3,8.3c-6.1,4.1-11.3,9.5-15.3,15.7c-4,6.2-6.6,13.2-7.7,20.5c-1.1,7.3-0.8,14.7,1.1,21.8
				c1.9,7.1,5.2,13.8,9.7,19.6c-2.4,3-4.4,6.3-6.1,9.8L431,77.5l-40.8-13.7c-2.9,8.5-3.6,17.5-2.1,26.3c1.5,8.8,5.2,17.1,10.7,24.1
				c-6.2,7.9-10.1,17.4-11.2,27.5c-1.1,10,0.7,20.1,5.1,29.2c4.4,9.1,11.3,16.7,19.8,22.1c8.6,5.3,18.5,8.2,28.5,8.2
				s20-2.8,28.5-8.2c8.6-5.3,15.4-13,19.8-22.1c4.4-9.1,6.2-19.2,5.1-29.2c-1.1-10-5-19.5-11.2-27.5c7.5-9.5,11.5-21.2,11.5-33.2
				C494.9,69,490.9,57.3,483.4,47.9L483.4,47.9z"/>
			<path class="st4" d="M387.3,81.1c0,12,4,23.7,11.5,33.2c-6.2,7.9-10.1,17.4-11.2,27.5c-1.1,10,0.7,20.1,5.1,29.2
				c4.4,9.1,11.3,16.7,19.8,22.1c8.6,5.3,18.5,8.2,28.5,8.2c10.1,0,20-2.8,28.5-8.2c8.6-5.3,15.4-13,19.8-22.1
				c4.4-9.1,6.2-19.2,5.1-29.2c-1.1-10-5-19.5-11.2-27.5C490.6,105.2,387.3,75.1,387.3,81.1z"/>
		</g>
		<g class="st1">
			<path class="st2" d="M126.3,277.2c3.8,0,6.8-4,6.8-8.9c0-4.9-3.1-8.9-6.8-8.9c-3.8,0-6.8,4-6.8,8.9
				C119.5,273.2,122.5,277.2,126.3,277.2z"/>
			<path class="st2" d="M131.7,230.1c1-1.7,1.4-3.5,1.4-5.5c0-4.9-3.1-8.9-6.8-8.9c-3.8,0-6.8,4-6.8,8.9c0,1.9,0.5,3.8,1.4,5.5
				c-0.9,1.7-1.4,3.5-1.4,5.5c0,1.9,0.5,3.8,1.4,5.5c-0.9,1.7-1.4,3.5-1.4,5.5c0,1.9,0.5,3.8,1.4,5.5c-1,1.7-1.4,3.5-1.4,5.5
				c0,4.9,3.1,8.9,6.8,8.9c3.8,0,6.8-4,6.8-8.9c0-1.9-0.5-3.8-1.4-5.5c0.9-1.7,1.4-3.5,1.4-5.5s-0.5-3.8-1.4-5.5
				c0.9-1.7,1.4-3.5,1.4-5.5C133.2,233.6,132.7,231.7,131.7,230.1z"/>
			<path class="st2" d="M126.3,222.6c3.8,0,6.8-4,6.8-8.9c0-4.9-3.1-8.9-6.8-8.9c-3.8,0-6.8,4-6.8,8.9
				C119.5,218.6,122.5,222.6,126.3,222.6z"/>
			<path class="st2" d="M126.3,211.7c3.8,0,6.8-4,6.8-8.9c0-4.9-3.1-8.9-6.8-8.9c-3.8,0-6.8,4-6.8,8.9
				C119.5,207.7,122.5,211.7,126.3,211.7z"/>
			<path class="st3" d="M100.7,128.1c-0.9-1.2-1.8-2.4-2.5-3.7l18-2.9l-19.4,0.1c-1.9-4-2.9-8.4-3-12.9c-0.1-4.4,0.7-8.9,2.4-13
				l26.1,13.5l-24-17.7c2.3-3.9,5.3-7.3,8.9-9.9c3.6-2.7,7.7-4.5,12.1-5.5c4.4-1,8.9-1.1,13.3-0.3c4.4,0.8,8.6,2.6,12.3,5.1
				c3.7,2.5,6.9,5.8,9.3,9.6c2.4,3.8,4,8,4.7,12.5c0.7,4.4,0.5,9-0.7,13.3c-1.1,4.3-3.2,8.4-5.9,11.9c1.5,1.8,2.7,3.8,3.7,6
				l-23.3,12.1l24.9-8.3c1.7,5.2,2.2,10.7,1.3,16c-0.9,5.4-3.2,10.4-6.5,14.7c3.8,4.8,6.2,10.6,6.8,16.7c0.7,6.1-0.4,12.3-3.1,17.8
				c-2.7,5.5-6.9,10.2-12.1,13.4c-5.2,3.3-11.2,5-17.4,5s-12.2-1.7-17.4-5c-5.2-3.3-9.4-7.9-12.1-13.4c-2.7-5.5-3.8-11.7-3.1-17.8
				c0.7-6.1,3-11.9,6.8-16.7c-4.5-5.8-7-12.9-7-20.2C93.7,140.9,96.2,133.8,100.7,128.1L100.7,128.1z"/>
			<path class="st4" d="M159.2,148.3c0,7.3-2.5,14.5-7,20.2c3.8,4.8,6.2,10.6,6.8,16.7c0.7,6.1-0.4,12.3-3.1,17.8
				c-2.7,5.5-6.9,10.2-12.1,13.4c-5.2,3.3-11.2,5-17.4,5c-6.1,0-12.2-1.7-17.4-5c-5.2-3.3-9.4-7.9-12.1-13.4
				c-2.7-5.5-3.8-11.7-3.1-17.8c0.7-6.1,3-11.9,6.8-16.7C96.3,162.9,159.2,144.6,159.2,148.3z"/>
		</g>
		<g class="st1">
			<path class="st2" d="M280.4,285c5.1,0,9.1-5.4,9.1-12c0-6.6-4.1-12-9.1-12c-5.1,0-9.1,5.4-9.1,12
				C271.2,279.7,275.3,285,280.4,285z"/>
			<path class="st2" d="M287.6,221.9c1.3-2.2,1.9-4.7,1.9-7.3c0-6.6-4.1-12-9.2-12c-5.1,0-9.2,5.4-9.2,12c0,2.6,0.6,5.1,1.9,7.3
				c-1.3,2.2-1.9,4.7-1.9,7.3c0,2.6,0.7,5.1,1.9,7.3c-1.3,2.2-1.9,4.7-1.9,7.3c0,2.6,0.7,5.1,1.9,7.3c-1.3,2.2-1.9,4.7-1.9,7.3
				c0,6.6,4.1,12,9.2,12c5.1,0,9.2-5.4,9.2-12c0-2.6-0.6-5.1-1.9-7.3c1.3-2.2,1.9-4.7,1.9-7.3c0-2.6-0.7-5.1-1.9-7.3
				c1.3-2.2,1.9-4.7,1.9-7.3C289.5,226.7,288.9,224.1,287.6,221.9z"/>
			<path class="st2" d="M280.4,211.9c5.1,0,9.1-5.4,9.1-12c0-6.6-4.1-12-9.1-12c-5.1,0-9.1,5.4-9.1,12
				C271.2,206.6,275.3,211.9,280.4,211.9z"/>
			<path class="st2" d="M280.4,197.3c5.1,0,9.1-5.4,9.1-12c0-6.6-4.1-12-9.1-12c-5.1,0-9.1,5.4-9.1,12
				C271.2,192,275.3,197.3,280.4,197.3z"/>
			<path class="st3" d="M246.2,85.4c-1.3-1.6-2.4-3.3-3.4-5l24-3.9l-26,0.2c-2.5-5.4-3.9-11.3-4-17.2c-0.1-6,0.9-11.9,3.2-17.4
				L274.8,60l-32.2-23.6c3-5.2,7.1-9.8,11.9-13.3c4.8-3.6,10.4-6.1,16.2-7.5c5.9-1.4,12-1.5,17.9-0.4c5.9,1.1,11.6,3.4,16.5,6.8
				c5,3.4,9.2,7.7,12.5,12.8s5.4,10.8,6.3,16.7c0.9,5.9,0.6,12-0.9,17.8c-1.5,5.8-4.3,11.3-8,16c1.9,2.5,3.6,5.1,5,8l-31.2,16.2
				l33.3-11.2c2.3,6.9,2.9,14.3,1.7,21.4c-1.2,7.2-4.2,13.9-8.7,19.6c5.1,6.5,8.2,14.2,9.1,22.4c0.9,8.2-0.6,16.4-4.2,23.8
				c-3.6,7.4-9.2,13.6-16.2,18c-7,4.4-15,6.7-23.3,6.7c-8.2,0-16.3-2.3-23.3-6.7c-7-4.4-12.6-10.6-16.2-18c-3.6-7.4-5-15.6-4.2-23.8
				c0.9-8.2,4-15.9,9.1-22.4c-6.1-7.7-9.4-17.2-9.4-27C236.8,102.6,240.1,93.1,246.2,85.4L246.2,85.4z"/>
			<path class="st4" d="M324.4,112.4c0,9.8-3.3,19.3-9.4,27c5.1,6.5,8.2,14.2,9.1,22.4c0.9,8.2-0.6,16.4-4.2,23.8
				c-3.6,7.4-9.2,13.6-16.2,18c-7,4.4-15,6.7-23.3,6.7c-8.2,0-16.3-2.3-23.3-6.7c-7-4.4-12.6-10.6-16.2-18c-3.6-7.4-5-15.6-4.2-23.8
				c0.9-8.2,4-15.9,9.1-22.4C240.3,132,324.4,107.5,324.4,112.4z"/>
		</g>
		<path class="st5" d="M595.3,283.9c0,3.5-25.5,6.7-67.8,9.1c-7.7,0.4-15.9,0.9-24.6,1.3c-7.5,0.3-15.4,0.7-23.7,1
			c-8,0.3-16.3,0.5-24.9,0.8c-27.2,0.8-57.3,1.3-89.3,1.6c-7.8,0.1-15.6,0.1-23.6,0.2c-8.3,0-16.7,0.1-25.2,0.1
			c-154.2,0-279.1-6.2-279.1-14c0-7.7,125-14,279.1-14c66.4,0,127.3,1.2,175.2,3.1l5.2,0.2h0C557,275.8,595.3,279.7,595.3,283.9z"/>
		<path class="st6" d="M595.3,283.9c0,3.5-25.5,6.7-67.8,9.1c-7.7,0.4-15.9,0.9-24.6,1.3c-7.5,0.3-15.4,0.7-23.7,1
			c-8,0.3-16.3,0.5-24.9,0.8c-27.2,0.8-57.3,1.3-89.3,1.6c-7.8,0.1-15.6,0.1-23.6,0.2c-8.3,0-16.7,0.1-25.2,0.1
			c-154.2,0-279.1-6.2-279.1-14c0-7.7,125-14,279.1-14c66.4,0,127.3,1.2,175.2,3.1l5.2,0.2h0C557,275.8,595.3,279.7,595.3,283.9z"/>
		<path class="st5" d="M572.3,281.5c0,2.9-25.5,5.6-67.8,7.6c-7.7,0.4-15.9,0.7-24.6,1.1c-7.5,0.3-15.4,0.6-23.7,0.8
			c-8,0.2-16.3,0.5-24.9,0.7c-27.2,0.7-57.3,1.1-89.3,1.4c-7.8,0.1-15.6,0.1-23.6,0.1c-8.3,0-16.7,0-25.2,0
			C139,293.1,14,287.9,14,281.5c0-6.5,125-11.7,279.1-11.7c66.4,0,127.3,1,175.2,2.6l5.2,0.2h0C534,274.7,572.3,277.9,572.3,281.5z"
			/>
		<path class="st5" d="M86.1,175.4l-7-21.4l167.8-1.8l6.9,21.2L86.1,175.4z"/>
		<path class="st6" d="M86.1,175.4l-7-21.4l167.8-1.8l6.9,21.2L86.1,175.4z"/>
		<path class="st5" d="M74.9,175.4l-7-21.4l167.8-1.8l6.9,21.2L74.9,175.4z"/>
		<path class="st5" d="M361.4,142.5c-17.4,0-31-6.9-41-20.6c-10-13.7-15-30.4-15-50c0-19.7,4.8-36.3,14.5-49.9
			c9.7-13.5,23.3-20.3,40.9-20.3c18.7,0,32.7,7.1,42.2,21.4c9.5,14.3,14.2,30.8,14.2,49.6c0,18.6-4.9,34.9-14.7,48.9
			C392.7,135.6,379,142.5,361.4,142.5z M361.9,127.1c11.4,0,19.9-5,25.6-14.9s8.5-22.5,8.5-37.6c0-16.8-2.9-30.6-8.7-41.3
			c-5.8-10.7-14.6-16.1-26.6-16.1c-22.7,0-34.1,18-34.1,54C326.6,108.4,338.4,127.1,361.9,127.1L361.9,127.1z M367.6,275.2h-25.1
			L506.8,4.5h24.6L367.6,275.2z M513,277.9c-17.6,0-31.3-6.9-41.2-20.8s-14.8-30.5-14.8-50c0-19.6,4.8-36.1,14.4-49.7
			c9.6-13.5,23.3-20.3,41-20.3c18.5,0,32.5,7.1,41.9,21.4c9.4,14.3,14.1,30.8,14.1,49.6c0,18.5-4.9,34.8-14.6,48.8
			C544.1,270.9,530.5,277.9,513,277.9L513,277.9z M513.3,262.1c11.4,0,19.8-4.9,25.5-14.6c5.6-9.8,8.4-22.2,8.4-37.4
			c0-16.2-2.8-29.9-8.5-40.9c-5.7-11-14.5-16.5-26.5-16.5c-22.8,0-34.3,18-34.3,54C477.8,243.6,489.6,262.1,513.3,262.1L513.3,262.1
			z"/>
		<path class="st5" d="M361.4,142.5c-17.4,0-31-6.9-41-20.6c-10-13.7-15-30.4-15-50c0-19.7,4.8-36.3,14.5-49.9
			c9.7-13.5,23.3-20.3,40.9-20.3c18.7,0,32.7,7.1,42.2,21.4c9.5,14.3,14.2,30.8,14.2,49.6c0,18.6-4.9,34.9-14.7,48.9
			C392.7,135.6,379,142.5,361.4,142.5z M361.9,127.1c11.4,0,19.9-5,25.6-14.9s8.5-22.5,8.5-37.6c0-16.8-2.9-30.6-8.7-41.3
			c-5.8-10.7-14.6-16.1-26.6-16.1c-22.7,0-34.1,18-34.1,54C326.6,108.4,338.4,127.1,361.9,127.1L361.9,127.1z M367.6,275.2h-25.1
			L506.8,4.5h24.6L367.6,275.2z M513,277.9c-17.6,0-31.3-6.9-41.2-20.8s-14.8-30.5-14.8-50c0-19.6,4.8-36.1,14.4-49.7
			c9.6-13.5,23.3-20.3,41-20.3c18.5,0,32.5,7.1,41.9,21.4c9.4,14.3,14.1,30.8,14.1,49.6c0,18.5-4.9,34.8-14.6,48.8
			C544.1,270.9,530.5,277.9,513,277.9L513,277.9z M513.3,262.1c11.4,0,19.8-4.9,25.5-14.6c5.6-9.8,8.4-22.2,8.4-37.4
			c0-16.2-2.8-29.9-8.5-40.9c-5.7-11-14.5-16.5-26.5-16.5c-22.8,0-34.3,18-34.3,54C477.8,243.6,489.6,262.1,513.3,262.1L513.3,262.1
			z"/>
		<path class="st6" d="M361.4,142.5c-17.4,0-31-6.9-41-20.6c-10-13.7-15-30.4-15-50c0-19.7,4.8-36.3,14.5-49.9
			c9.7-13.5,23.3-20.3,40.9-20.3c18.7,0,32.7,7.1,42.2,21.4c9.5,14.3,14.2,30.8,14.2,49.6c0,18.6-4.9,34.9-14.7,48.9
			C392.7,135.6,379,142.5,361.4,142.5z M361.9,127.1c11.4,0,19.9-5,25.6-14.9s8.5-22.5,8.5-37.6c0-16.8-2.9-30.6-8.7-41.3
			c-5.8-10.7-14.6-16.1-26.6-16.1c-22.7,0-34.1,18-34.1,54C326.6,108.4,338.4,127.1,361.9,127.1L361.9,127.1z M367.6,275.2h-25.1
			L506.8,4.5h24.6L367.6,275.2z M513,277.9c-17.6,0-31.3-6.9-41.2-20.8s-14.8-30.5-14.8-50c0-19.6,4.8-36.1,14.4-49.7
			c9.6-13.5,23.3-20.3,41-20.3c18.5,0,32.5,7.1,41.9,21.4c9.4,14.3,14.1,30.8,14.1,49.6c0,18.5-4.9,34.8-14.6,48.8
			C544.1,270.9,530.5,277.9,513,277.9L513,277.9z M513.3,262.1c11.4,0,19.8-4.9,25.5-14.6c5.6-9.8,8.4-22.2,8.4-37.4
			c0-16.2-2.8-29.9-8.5-40.9c-5.7-11-14.5-16.5-26.5-16.5c-22.8,0-34.3,18-34.3,54C477.8,243.6,489.6,262.1,513.3,262.1L513.3,262.1
			z"/>
		<path class="st5" d="M345.6,142.5c-17.4,0-31-6.9-41-20.6c-10-13.7-15-30.4-15-50c0-19.7,4.8-36.3,14.5-49.9
			C313.8,8.5,327.4,1.7,345,1.8c18.7,0,32.7,7.1,42.2,21.4c9.5,14.3,14.2,30.8,14.2,49.6c0,18.6-4.9,34.9-14.7,48.9
			C377,135.6,363.2,142.5,345.6,142.5z M346.1,127.1c11.4,0,19.9-5,25.6-14.9c5.6-9.9,8.5-22.5,8.5-37.6c0-16.8-2.9-30.6-8.7-41.3
			c-5.8-10.7-14.6-16.1-26.6-16.1c-22.7,0-34.1,18-34.1,54C310.9,108.4,322.6,127.1,346.1,127.1L346.1,127.1z M351.9,275.2h-25.1
			L491.1,4.5h24.6L351.9,275.2z M497.2,277.9c-17.6,0-31.3-6.9-41.2-20.8c-9.8-13.9-14.8-30.5-14.8-50c0-19.6,4.8-36.1,14.4-49.7
			c9.6-13.5,23.3-20.3,41-20.3c18.5,0,32.5,7.1,41.9,21.4c9.4,14.3,14.1,30.8,14.1,49.6c0,18.5-4.9,34.8-14.6,48.8
			C528.3,270.9,514.7,277.9,497.2,277.9L497.2,277.9z M497.5,262.1c11.4,0,19.8-4.9,25.5-14.6c5.6-9.8,8.4-22.2,8.4-37.4
			c0-16.2-2.8-29.9-8.5-40.9c-5.7-11-14.5-16.5-26.6-16.5c-22.8,0-34.3,18-34.3,54C462,243.6,473.9,262.1,497.5,262.1L497.5,262.1z"
			/>
		<path class="st7" d="M400.5,281.9c2.1-3.9-0.3-8.6-3-12.1c-2.7-3.5-6.1-7.1-6-11.5c0.1-6.3,6.8-10.1,12.2-13.4
			c4-2.5,7.7-5.4,11-8.8c1.4-1.3,2.5-2.8,3.4-4.5c1.1-2.5,1.1-5.3,1-8c-0.2-9-0.7-18.1-1.3-27.1"/>
		<path class="st8" d="M428,196.1c-0.1-1.7-0.6-3.3-1.4-4.7c-0.9-1.4-2.1-2.6-3.5-3.4l-2.2,4.4l0.1-5.3c-1.1-0.3-2.2-0.4-3.3-0.4
			c-2,0.1-3.8,0.8-5.4,1.9c-1.6,1.2-2.8,2.8-3.4,4.6c-0.7,1.8-0.8,3.8-0.3,5.7c0.5,1.9,1.5,3.6,2.9,4.9c1.4,1.3,3.3,2.2,5.2,2.5
			s3.9,0,5.7-0.8c1.8-0.8,3.3-2.2,4.3-3.8C427.6,200,428.1,198,428,196.1z"/>
		<path class="st8" d="M410.3,262.9c-1,2-2.7,3.6-4.8,4.5c-2.1,0.9-4.4,1.1-6.6,0.5c-2.2-0.6-4.1-1.9-5.4-3.8
			c-1.3-1.8-2-4.1-1.8-6.3c0.1-2.3,1-4.4,2.6-6.1c1.5-1.7,3.6-2.8,5.8-3.1c2.2-0.3,4.5,0.1,6.5,1.3c2,1.2,3.5,2.9,4.2,5.1l-6.2,5
			l6.8-1.6C411.4,260,411.1,261.5,410.3,262.9z"/>
		<path class="st8" d="M405.4,243.7c-1.3,0.1-2.6-0.1-3.8-0.6c-1.2-0.4-2.3-1.1-3.3-2c-1-0.9-1.7-1.9-2.3-3.1
			c-0.6-1.2-0.9-2.4-0.9-3.7c-0.1-1.5,0.2-3.1,0.9-4.5c0.6-1.3,1.5-2.5,2.6-3.4c1.1-0.9,2.4-1.6,3.8-2l-0.1,4.1l2.2-4.4
			c2.6-0.1,5.2,0.8,7.1,2.6c1.9,1.8,3.1,4.2,3.2,6.8c0.1,2.6-0.8,5.2-2.6,7.1C410.5,242.4,408,243.6,405.4,243.7L405.4,243.7z"/>
		<path class="st8" d="M429.5,227.8c-1.3,0.1-2.6-0.1-3.9-0.5c-1.2-0.4-2.4-1.1-3.4-2c-1-0.9-1.8-1.9-2.3-3.1s-0.9-2.5-1-3.8
			c-0.1-1.3,0.1-2.6,0.6-3.9c0.5-1.2,1.1-2.4,2-3.3c0.9-1,2-1.7,3.2-2.3c1.2-0.5,2.5-0.8,3.8-0.9c1.9-0.1,3.7,0.3,5.3,1.3l-1.7,4.8
			l3.6-3.4c1.9,1.8,3.1,4.2,3.2,6.8c0,0.9,0,1.8-0.3,2.7c-0.5,2.1-1.7,4-3.3,5.3C433.7,226.9,431.6,227.7,429.5,227.8z"/>
		<path class="st4" d="M426.6,198.7c-2.3,0.2-4.5,1-6.8,1.1c-2.3,0.1-4.8-0.4-6.3-2.2c-0.8-1-1.2-2.2-1.8-3.2
			c-0.6-1-1.5-1.8-2.5-2.3c-0.6,1.3-1,2.6-1.1,4c-0.1,1.4,0.2,2.8,0.7,4.1c0.5,1.3,1.3,2.5,2.3,3.5c1,1,2.2,1.7,3.5,2.2
			c1.3,0.5,2.7,0.7,4.1,0.5c1.4-0.1,2.8-0.5,4-1.2s2.3-1.6,3.1-2.7c0.8-1.1,1.4-2.4,1.7-3.8C427.4,198.6,427,198.7,426.6,198.7z"/>
		<path class="st4" d="M429.5,227.8c-1.7,0.1-3.4-0.3-4.9-1.1c-1.5-0.8-2.8-1.9-3.8-3.3c-0.9-1.4-1.5-3.1-1.6-4.8
			c-0.1-1.7,0.2-3.4,0.9-4.9c0.8,0.5,1.5,1.2,2,2c0.7,1.1,1.1,2.3,2,3.3c1.5,1.8,4.2,2.4,6.6,2.3c2.4-0.1,4.7-0.8,7.1-1
			c0.3,0,0.7-0.1,1-0.1c-0.5,2.1-1.7,4-3.3,5.3C433.7,226.9,431.6,227.7,429.5,227.8z"/>
		<path class="st4" d="M405.4,243.7c-1.3,0.1-2.6-0.1-3.8-0.6c-1.2-0.4-2.3-1.1-3.3-2c-1-0.9-1.7-1.9-2.3-3.1
			c-0.6-1.2-0.9-2.4-0.9-3.7c-0.1-1.5,0.2-3.1,0.9-4.5c0.8,0.5,1.5,1.2,2.1,2c0.8,1.1,1.3,2.3,2.2,3.3c1.7,1.9,4.5,2.5,7,2.4
			c2.5-0.1,4.8-0.6,7.2-0.8c-0.6,1.9-1.8,3.6-3.4,4.9C409.4,242.9,407.5,243.6,405.4,243.7z"/>
		<path class="st4" d="M410.3,262.9c-1.2,2.3-3.1,4-5.5,4.8c-2.4,0.8-5,0.7-7.3-0.3c-2.3-1-4.1-2.9-5.1-5.3c-1-2.3-1-5-0.1-7.3
			c0.8,0.5,1.5,1.2,2.2,1.9c0.9,1.1,1.6,2.4,2.6,3.5c2,2,5.3,2.8,8.2,2.9C407,263.2,408.7,263.1,410.3,262.9z"/>
		<path class="st7" d="M553.6,281.4c2.1-3.9-0.3-8.6-3-12.1s-6.1-7.1-6-11.5c0.1-6.3,6.8-10.1,12.2-13.4c4-2.5,7.7-5.4,11-8.8
			c1.4-1.3,2.5-2.8,3.4-4.5c1.1-2.5,1.1-5.3,1-8c-0.2-9-0.7-18.1-1.3-27.1"/>
		<path class="st8" d="M581,195.6c-0.1-1.7-0.6-3.3-1.4-4.7c-0.9-1.4-2.1-2.6-3.5-3.4l-2.2,4.4l0.1-5.3c-1.1-0.3-2.2-0.4-3.3-0.4
			c-2,0.1-3.8,0.8-5.4,1.9c-1.6,1.2-2.8,2.8-3.4,4.6c-0.7,1.8-0.8,3.8-0.3,5.7c0.5,1.9,1.5,3.6,2.9,4.9c1.4,1.3,3.3,2.2,5.2,2.5
			c1.9,0.3,3.9,0,5.7-0.8c1.8-0.8,3.3-2.2,4.3-3.8C580.6,199.4,581.1,197.5,581,195.6z"/>
		<path class="st8" d="M563.4,262.4c-1,2-2.7,3.6-4.8,4.5c-2.1,0.9-4.4,1.1-6.6,0.5c-2.2-0.6-4.1-1.9-5.4-3.8
			c-1.3-1.8-2-4.1-1.8-6.3c0.1-2.3,1-4.4,2.6-6.1c1.5-1.7,3.6-2.8,5.8-3.1c2.2-0.3,4.5,0.1,6.5,1.3c2,1.2,3.5,2.9,4.2,5.1l-6.2,5
			l6.8-1.6C564.5,259.5,564.1,261,563.4,262.4z"/>
		<path class="st8" d="M558.5,243.2c-1.3,0.1-2.6-0.1-3.8-0.6s-2.3-1.1-3.3-2c-1-0.9-1.7-1.9-2.3-3.1c-0.6-1.2-0.9-2.4-0.9-3.7
			c-0.1-1.5,0.2-3.1,0.9-4.5c0.6-1.3,1.5-2.5,2.6-3.4c1.1-0.9,2.4-1.6,3.8-2l-0.1,4.1l2.2-4.4h0c1.3-0.1,2.6,0.1,3.8,0.6
			c1.2,0.4,2.3,1.1,3.3,2c1,0.9,1.7,1.9,2.3,3.1c0.6,1.2,0.9,2.4,0.9,3.7c0.1,1.3-0.1,2.6-0.6,3.8c-0.4,1.2-1.1,2.3-2,3.3
			c-0.9,1-1.9,1.7-3.1,2.3C561.1,242.8,559.8,243.2,558.5,243.2L558.5,243.2z"/>
		<path class="st8" d="M582.5,227.3c-1.3,0.1-2.6-0.1-3.9-0.5c-1.2-0.4-2.4-1.1-3.4-2c-1-0.9-1.8-1.9-2.3-3.1
			c-0.6-1.2-0.9-2.5-1-3.8c-0.1-1.3,0.1-2.6,0.6-3.9c0.5-1.2,1.1-2.4,2-3.3c0.9-1,2-1.7,3.2-2.3s2.5-0.8,3.8-0.9
			c1.8-0.1,3.7,0.3,5.3,1.3l-1.7,4.8l3.6-3.4c1.9,1.8,3.1,4.2,3.2,6.8c0,0.9,0,1.8-0.3,2.7c-0.5,2.1-1.7,4-3.3,5.3
			C586.7,226.4,584.7,227.2,582.5,227.3z"/>
		<path class="st4" d="M579.7,198.2c-2.3,0.2-4.5,1-6.8,1.1c-2.3,0.1-4.8-0.4-6.3-2.2c-0.8-1-1.2-2.2-1.8-3.2
			c-0.6-1-1.5-1.8-2.5-2.3c-0.6,1.3-1,2.6-1.1,4c-0.1,1.4,0.2,2.8,0.7,4.1c0.5,1.3,1.3,2.5,2.3,3.5c1,1,2.2,1.7,3.5,2.2
			c1.3,0.5,2.7,0.7,4.1,0.5c1.4-0.1,2.8-0.5,4-1.2c1.2-0.7,2.3-1.6,3.1-2.7c0.8-1.1,1.4-2.4,1.7-3.8
			C580.5,198.1,580.1,198.2,579.7,198.2z"/>
		<path class="st4" d="M582.5,227.3c-1.7,0.1-3.4-0.3-4.9-1.1c-1.5-0.8-2.8-1.9-3.8-3.3c-0.9-1.4-1.5-3.1-1.6-4.8
			c-0.1-1.7,0.2-3.4,0.9-4.9c0.8,0.5,1.5,1.2,2,2c0.7,1.1,1.1,2.3,2,3.3c1.5,1.8,4.2,2.4,6.6,2.3c2.4-0.1,4.7-0.8,7.1-1
			c0.3,0,0.7-0.1,1-0.1c-0.5,2.1-1.7,4-3.3,5.3C586.8,226.4,584.7,227.2,582.5,227.3z"/>
		<path class="st4" d="M558.5,243.2c-1.3,0.1-2.6-0.1-3.8-0.6s-2.3-1.1-3.3-2c-1-0.9-1.7-1.9-2.3-3.1c-0.6-1.2-0.9-2.4-0.9-3.7
			c-0.1-1.5,0.2-3.1,0.9-4.5c0.8,0.5,1.5,1.2,2.1,2c0.8,1.1,1.3,2.3,2.2,3.3c1.7,1.9,4.5,2.5,7,2.4c2.5-0.1,4.8-0.6,7.2-0.8
			c-0.6,1.9-1.8,3.6-3.4,4.9C562.5,242.4,560.5,243.1,558.5,243.2z"/>
		<path class="st4" d="M563.4,262.4c-1.2,2.3-3.1,4-5.5,4.8c-2.4,0.8-5,0.7-7.3-0.3c-2.3-1-4.1-2.9-5.1-5.3c-1-2.3-1-5-0.1-7.3
			c0.8,0.5,1.5,1.2,2.2,1.9c0.9,1.1,1.6,2.4,2.6,3.5c2,2,5.3,2.8,8.2,2.9C560.1,262.7,561.7,262.6,563.4,262.4z"/>
		<path class="st7" d="M69.9,274.8c-2.1-3.9,0.3-8.6,3-12.1c2.7-3.5,6.1-7.1,6-11.5c-0.1-6.3-6.8-10.1-12.2-13.4
			c-4-2.5-7.7-5.4-11-8.8c-1.4-1.3-2.5-2.8-3.4-4.5c-1.1-2.5-1.1-5.3-1-8c0.2-9,0.7-18.1,1.3-27.1"/>
		<path class="st8" d="M42.5,189c0.1-1.7,0.6-3.3,1.4-4.7c0.9-1.4,2.1-2.6,3.5-3.4l2.2,4.4l-0.1-5.3c1.1-0.3,2.2-0.4,3.3-0.4
			c2,0.1,3.8,0.8,5.4,1.9c1.6,1.2,2.8,2.8,3.4,4.6c0.7,1.8,0.8,3.8,0.3,5.7c-0.5,1.9-1.5,3.6-2.9,4.9c-1.4,1.3-3.3,2.2-5.2,2.5
			c-1.9,0.3-3.9,0-5.7-0.8c-1.8-0.8-3.3-2.2-4.3-3.8C42.9,192.8,42.4,190.9,42.5,189z"/>
		<path class="st8" d="M60.1,255.8c1,2,2.7,3.6,4.8,4.5c2.1,0.9,4.4,1.1,6.6,0.5c2.2-0.6,4.1-1.9,5.4-3.8c1.3-1.8,2-4.1,1.8-6.3
			c-0.1-2.3-1-4.4-2.6-6.1c-1.5-1.7-3.6-2.8-5.8-3.1c-2.2-0.3-4.5,0.1-6.5,1.3c-2,1.2-3.5,2.9-4.2,5.1l6.2,5l-6.8-1.6
			C59,252.9,59.4,254.4,60.1,255.8z"/>
		<path class="st8" d="M65,236.6c1.3,0.1,2.6-0.1,3.8-0.6c1.2-0.4,2.3-1.1,3.3-2c1-0.9,1.7-1.9,2.3-3.1c0.6-1.2,0.9-2.4,0.9-3.7
			c0.1-1.5-0.2-3.1-0.9-4.5c-0.6-1.3-1.5-2.5-2.6-3.4c-1.1-0.9-2.4-1.6-3.8-2l0.1,4.1l-2.2-4.4c-2.6-0.1-5.2,0.8-7.1,2.6
			c-1.9,1.8-3.1,4.2-3.2,6.8s0.8,5.2,2.6,7.1C60,235.3,62.4,236.5,65,236.6L65,236.6z"/>
		<path class="st8" d="M41,220.7c1.3,0.1,2.6-0.1,3.9-0.5c1.2-0.4,2.4-1.1,3.4-2c1-0.9,1.8-1.9,2.3-3.1c0.6-1.2,0.9-2.5,1-3.8
			c0.1-1.3-0.1-2.6-0.6-3.9c-0.5-1.2-1.1-2.4-2-3.3c-0.9-1-2-1.7-3.2-2.3c-1.2-0.5-2.5-0.8-3.8-0.9c-1.8-0.1-3.7,0.4-5.3,1.3
			l1.7,4.8l-3.6-3.4c-1.9,1.8-3.1,4.2-3.2,6.8c0,0.9,0,1.8,0.3,2.7c0.5,2.1,1.7,4,3.3,5.3C36.8,219.8,38.8,220.6,41,220.7z"/>
		<path class="st4" d="M43.8,191.6c2.3,0.2,4.5,1,6.8,1.1c2.3,0.1,4.8-0.4,6.3-2.2c0.8-1,1.2-2.2,1.8-3.2c0.6-1,1.5-1.8,2.5-2.3
			c0.6,1.3,1,2.6,1.1,4c0.1,1.4-0.2,2.8-0.7,4.1c-0.5,1.3-1.3,2.5-2.3,3.5c-1,1-2.2,1.7-3.5,2.2c-1.3,0.5-2.7,0.7-4.1,0.5
			c-1.4-0.1-2.8-0.5-4-1.2c-1.2-0.7-2.3-1.6-3.1-2.7c-0.8-1.1-1.4-2.4-1.7-3.8C43.1,191.5,43.4,191.6,43.8,191.6z"/>
		<path class="st4" d="M41,220.7c1.7,0.1,3.4-0.3,4.9-1.1c1.5-0.8,2.8-1.9,3.8-3.3c0.9-1.4,1.5-3.1,1.6-4.8c0.1-1.7-0.2-3.4-0.9-4.9
			c-0.8,0.5-1.5,1.2-2,2c-0.7,1.1-1.1,2.3-2,3.3c-1.5,1.8-4.2,2.4-6.6,2.3c-2.4-0.1-4.7-0.8-7.1-1c-0.3,0-0.7-0.1-1-0.1
			c0.5,2.1,1.7,4,3.3,5.3C36.8,219.8,38.8,220.6,41,220.7z"/>
		<path class="st4" d="M65,236.6c1.3,0.1,2.6-0.1,3.8-0.6c1.2-0.4,2.3-1.1,3.3-2c1-0.9,1.7-1.9,2.3-3.1c0.6-1.2,0.9-2.4,0.9-3.7
			c0.1-1.5-0.2-3.1-0.9-4.5c-0.8,0.5-1.5,1.2-2.1,2c-0.8,1.1-1.3,2.3-2.2,3.3c-1.7,1.9-4.5,2.5-7,2.4c-2.5-0.1-4.8-0.6-7.2-0.8
			c0.6,1.9,1.8,3.6,3.4,4.9C61,235.8,63,236.5,65,236.6z"/>
		<path class="st4" d="M60.1,255.8c1.2,2.3,3.1,4,5.5,4.8c2.4,0.8,5,0.7,7.3-0.3c2.3-1,4.1-2.9,5.1-5.3c1-2.3,1-5,0.1-7.3
			c-0.8,0.5-1.5,1.2-2.2,1.9c-0.9,1.1-1.6,2.4-2.6,3.5c-2,2-5.3,2.8-8.2,2.9C63.5,256.1,61.8,256,60.1,255.8z"/>
		
			<linearGradient id="SVGID_3_" gradientUnits="userSpaceOnUse" x1="302.5953" y1="-447.5504" x2="302.5953" y2="-366.5222" gradientTransform="matrix(1 0 0 -1 2.131348e-04 -161.8899)">
			<stop  offset="0" style="stop-color:#808080;stop-opacity:0.25"/>
			<stop  offset="0.54" style="stop-color:#808080;stop-opacity:0.12"/>
			<stop  offset="1" style="stop-color:#808080;stop-opacity:0.1"/>
		</linearGradient>
		<path class="st9" d="M356.5,227.3c0-1.2-0.3-2.4-0.8-3.5c-0.5-1.1-1.3-2.1-2.3-2.8c-0.1-4.7-3.4-8.5-7.7-9c-0.3-1.6-1.1-3-2.2-4.3
			c-1.1-1.2-2.5-2.1-4-2.6c-0.4-0.1-0.8-0.2-1.1-0.3h-0.1l-0.2,0h-0.2h-0.2h-0.2h-0.1H337c-4.4,0-8,3.3-8.7,7.7
			c-2.8-0.6-5.4,0.2-5.9,2c-0.1,0.5-0.1,1,0.1,1.4c0.5,1.4,2,2.7,4.1,3.4l0.3,0.1c0.1,0,0.3,0.1,0.4,0.1h0.1
			c-0.8,1.7-0.9,3.5-0.3,5.3c0.6,1.7,1.8,3.2,3.4,4c-0.1,0-0.1,0.1-0.2,0.1c-0.3,0.2-0.5,0.5-0.6,0.9c-0.5,0.9-0.9,1.8-1.2,2.8
			c-0.2,0.8-0.2,1.7-0.5,2.6c-0.5,1.5-1.7,2.9-1.8,4.5c-0.1,0.7,0.1,1.6-0.5,2.1c-0.1,0.1-0.3,0.2-0.4,0.3c-0.4,0.2-0.7,0.6-0.9,0.9
			c-0.1,0.3-0.4,0.6-0.6,0.8c-0.5,0.4-1.2,0.3-1.5,0.9c-0.2,0.5,0.4,1.2,0.2,1.8c-0.1,0.5-0.6,0.7-1,1c-0.4,0.5-0.7,1-0.9,1.6
			c-0.8,0.1-1.5,0.1-2.3-0.1c-0.7-0.2-1.4-0.5-2-1c0.2,0.5,0.4,1.1,0.4,1.6c-0.6-0.6-1.6-0.8-2.3-1.2c-1-0.4-1.8-1.1-2.5-1.8
			l1.3-0.2l-5.9-8.9l-1.7-0.4l1.6,3c-0.1,0.1-0.2,0.2-0.3,0.3c-0.1,0.1-0.1,0.2-0.2,0.4c-0.1,0.3-0.1,0.7-0.1,1
			c0.1,0.8,0.2,1.6,0.4,2.4l0.5,2.1c0,0.2,0.1,0.4,0.1,0.6c-0.6,0-1.2,0-1.7,0.2c-1.2-0.4-2.4-0.7-3.6-0.9c-0.3,0-0.6,0-0.8,0
			c-0.3,0.1-0.6,0.4-0.8,0.6c-1,1.2-1.9,2.4-2.7,3.8c-3.2,5.5-7.4,10.3-11.4,15.3c-2.7,1.1-5.5,2.2-8.3,3.2l-5.9,2.3
			c-1.2,0.5-2.4,0.9-3.7,0.8c-0.6,0-1.3-0.1-1.6,0.4c-0.2,0.2-0.3,0.5-0.4,0.8c-0.2,0-0.4,0.1-0.6,0.1h0c-0.4-0.9-0.7-1.9-1.4-2.6
			c-0.1,0-0.3,0.1-0.4,0.2c-0.1,0.1-0.2,0.2-0.3,0.3c-0.1,0.3-0.2,0.6-0.4,0.8c-0.3,0.5-0.9,0.7-1.3,1.1c-0.4,0.4-0.6,1-1.1,1.4
			c-0.6,0.4-1.3,0.7-2,0.8c-1.1,0.3-2.2,0.7-3.2,1.2c-0.4,0.2-0.8,0.4-1.2,0.5c-0.5,0.1-0.9,0.1-1.4,0l-3.1-0.2c-0.3,0-0.6,0-0.8,0
			c-0.3,0.1-0.6,0.3-0.8,0.6c-0.2,0.3-0.3,0.6-0.2,1c0,0.3,0.1,0.7,0.3,1c0.2,0.3,0.4,0.6,0.7,0.8c0.5,0.4,1.1,0.7,1.8,0.9
			c2.7,1.1,5.5,1.9,8.4,2.5v0.6c2,1,4.2,1.5,6.4,1.5c0.2,0,0.3,0,0.5-0.1c0.2-0.2,0.3-0.4,0.4-0.6c0.7-2,1.1-4.1,1.3-6.1
			c0.4,0,0.8-0.1,1.1-0.3c1.1-0.3,2.2,0.4,3.3,0.6c1.4,0.1,2.6-0.6,3.9-1.1c0.2-0.1,0.4-0.1,0.6-0.2c-0.4,0.5-0.8,0.9-1.3,1.3
			c-0.5,0.4-1.1,0.7-1.7,1.1c-0.4,0.4-0.9,0.8-1.4,1.1c-0.4,0.2-0.7,0.3-1.1,0.4c-0.5,0.2-1,0.5-1.5,0.8c-0.4,0.3-0.8,0.6-1.1,1
			c-0.1,0.2-0.2,0.4-0.2,0.7c0,0.2,0,0.5,0.1,0.7c0.1,0.2,0.2,0.4,0.4,0.5c0.2,0.1,0.4,0.2,0.6,0.3c0.4,0.1,0.9,0.1,1.3,0
			c1.7-0.1,3.4-0.3,5.1-0.4c0.7,0,1.4-0.1,2.1-0.3c0.4-0.1,0.7-0.2,1.1-0.3c0.6-0.2,1.3-0.3,1.9-0.3c0.2,0,0.4,0,0.6,0.1
			c0.4,0.1,0.7,0.5,1.1,0.6c0.3,0,0.5,0,0.8-0.1c1.2-0.3,2.5-0.4,3.8-0.4c0.6,0,1.2-0.1,1.5-0.6c0.3-0.6-0.2-1.3-0.4-2
			c-0.1-0.4-0.2-0.9-0.2-1.3c-0.1-1.1-0.4-2.2-0.9-3.2c-0.3-0.5-0.5-0.9-0.7-1.4c2.4-0.9,4.8-2.1,6.9-3.5c1.3-0.8,2.5-1.6,4-1.9
			c1.6-0.3,3.3,0.1,5,0.6c3.9,1.1,7.7,2.4,11.4,4c1.8,0.7,3.6,1.5,5.4,2c0.5,0.7,1.2,1.3,1.9,1.9c1.2,0.8,2.7,1,4.1,1.1
			c1.9,0.2,3.9,0.2,5.8,0.2c1.5,0,3-0.1,4.3-0.8c0.3-0.2,0.6-0.4,0.9-0.6c1,0.2,2.1-0.4,2.9-1.1c1.1-0.9,1.8-2.1,2.2-3.4
			c0.5-1.8,0.1-4,1.2-5.5c0.3-0.4,0.7-0.7,1-1.1c0.4-0.5,0.5-1.2,0.5-1.8l0.1-0.1c0.3-0.6,0.4-1.2,0.5-1.8c0.1-0.5,0.3-1,0.5-1.5
			c0.6-1.4,1.1-2.9,1.5-4.3c0.3-1,0.5-2,0.7-3c0.1-0.8,0.2-1.6,0.3-2.4c0.1-1.3,0.3-2.5,0.7-3.7c1-2.9,1.6-5.9,1.7-8.9
			c0-0.1,0-0.1,0-0.2c1.5-0.2,2.8-0.9,3.8-2c1-1.1,1.5-2.5,1.5-4c0-0.9-0.2-1.8-0.5-2.6C356.2,230.1,356.5,228.7,356.5,227.3z
			 M327.8,262.2c0.1,0.3,0.2,0.6,0.3,0.9c-0.5-0.5-0.9-0.9-1.4-1.4c0.2,0.1,0.4,0.1,0.6,0.2C327.4,261.9,327.6,262,327.8,262.2
			L327.8,262.2z M325.5,260.6c-2.8-2.4-6-4.3-8.8-6.6c1.5,0.8,3.1,1.7,4.6,2.5c1.8,1,3.6,2,5.4,2.9
			C326.3,259.9,325.9,260.3,325.5,260.6L325.5,260.6z M326.7,254.6l0.1-0.1c0,0.3,0,0.7,0,0.9c-0.2-0.1-0.5-0.2-0.7-0.3
			C326.3,254.9,326.5,254.8,326.7,254.6L326.7,254.6z M302.2,261.1c1.1-1.3,2.1-2.7,3-4.2c1.1,1.9,2.9,3.3,4.4,4.9
			C307.1,261.4,304.7,261.2,302.2,261.1L302.2,261.1z"/>
		<path class="st10" d="M306.2,237.7l1.8,0.4l6,8.8l-2.6,0.4L306.2,237.7z"/>
		<path class="st11" d="M263.7,273.5c0.5,1.6,1.1,3.1,1.7,4.6c2-0.4,3.9-1,5.8-1.7c-0.4-0.6-0.8-1.1-1.2-1.6c-0.5-0.5-1-0.9-1.6-1.3
			c-0.6-0.3-1.4-0.1-2,0C265.5,273.5,264.6,273.5,263.7,273.5z"/>
		<path class="st10" d="M268.4,275.8c-1-0.3-1.6-1.3-2-2.3c-0.4-1-0.7-2-1.5-2.7c-0.1,0-0.3,0.1-0.4,0.2c-0.1,0.1-0.2,0.2-0.3,0.3
			c-0.1,0.3-0.2,0.5-0.4,0.8c-0.3,0.5-0.9,0.7-1.3,1.1c-0.4,0.4-0.7,1-1.1,1.4c-0.6,0.4-1.3,0.7-2,0.8c-1.1,0.3-2.2,0.6-3.2,1.2
			c-0.4,0.2-0.8,0.4-1.2,0.5c-0.5,0.1-0.9,0.1-1.4,0l-3.2-0.2c-0.3,0-0.6,0-0.8,0c-0.3,0.1-0.6,0.3-0.8,0.6c-0.2,0.3-0.3,0.6-0.2,1
			c0,0.3,0.2,0.7,0.3,1c0.2,0.3,0.4,0.5,0.7,0.7c0.6,0.4,1.2,0.7,1.8,0.9c2.8,1,5.6,1.8,8.5,2.4v0.6c2,1,4.2,1.5,6.5,1.5
			c0.2,0,0.3,0,0.5-0.1c0.2-0.2,0.4-0.4,0.4-0.6c0.8-2.2,1.2-4.5,1.3-6.9c0.1-0.6,0-1.2-0.1-1.8C268.4,275.8,269,276,268.4,275.8"/>
		<path class="st10" d="M329.2,263.9c-9.4,0.6-18.7-2.2-28.1-2.5c-1.2-0.1-2.3,0-3.5,0.2c-1.2,0.3-2.4,0.8-3.5,1.3
			c-5,2.3-10.3,4.3-15.5,6.2l-6,2.2c-1.2,0.4-2.4,0.9-3.7,0.8c-0.6,0-1.3-0.1-1.6,0.4c-1,1.4-0.5,3.6,0.1,5.2
			c0.2,0.5,0.6,1.1,1.1,1.2c0.4,0,0.8-0.1,1.1-0.3c1.1-0.3,2.2,0.4,3.3,0.6c1.4,0.1,2.7-0.6,4-1.1c2.2-0.8,4.5-0.8,6.8-1.2
			c3.8-0.6,7.4-2.4,10.7-4.4c1.3-0.8,2.5-1.6,4-1.9c1.7-0.3,3.4,0.1,5,0.6c3.9,1.1,7.7,2.4,11.5,3.9c2,0.8,4,1.6,6,2.2
			c4.5,1.2,9.2,0.9,13.4-0.8c1.5-0.6,3.1-1.6,3.2-3.3c0.1-0.9-0.7-1.7-1.1-2.5c-0.3-0.5-0.6-1-1-1.5
			C334,266.8,332,263.7,329.2,263.9z"/>
		<path class="st4" d="M329.2,263.9c-9.4,0.6-18.7-2.2-28.1-2.5c-1.2-0.1-2.3,0-3.5,0.2c-1.2,0.3-2.4,0.8-3.5,1.3
			c-5,2.3-10.3,4.3-15.5,6.2l-6,2.2c-1.2,0.4-2.4,0.9-3.7,0.8c-0.6,0-1.3-0.1-1.6,0.4c-1,1.4-0.5,3.6,0.1,5.2
			c0.2,0.5,0.6,1.1,1.1,1.2c0.4,0,0.8-0.1,1.1-0.3c1.1-0.3,2.2,0.4,3.3,0.6c1.4,0.1,2.7-0.6,4-1.1c2.2-0.8,4.5-0.8,6.8-1.2
			c3.8-0.6,7.4-2.4,10.7-4.4c1.3-0.8,2.5-1.6,4-1.9c1.7-0.3,3.4,0.1,5,0.6c3.9,1.1,7.7,2.4,11.5,3.9c2,0.8,4,1.6,6,2.2
			c4.5,1.2,9.2,0.9,13.4-0.8c1.5-0.6,3.1-1.6,3.2-3.3c0.1-0.9-0.7-1.7-1.1-2.5c-0.3-0.5-0.6-1-1-1.5
			C334,266.8,332,263.7,329.2,263.9z"/>
		<path class="st11" d="M281.7,273.9c1.5,0.5,3,1,4.4,1.4c0.8-1.4,2.4-2.3,2.8-3.9c0-0.1,0-0.1,0-0.2c0-0.1-0.1-0.1-0.2-0.2
			c-1.1-0.6-2.3-0.9-3.5-1c-1-0.1-1.4,0.9-1.8,1.6C283.3,271.9,282.1,274,281.7,273.9z"/>
		<path class="st10" d="M283.8,272.9c-0.4-0.1-0.9-0.2-1.2-0.5c-0.4-0.2-0.7-0.6-0.9-0.9c-0.2-0.4-0.4-0.8-0.8-0.8
			c-0.4,0-0.6,0.5-0.6,0.9c-0.3,1.4-0.7,2.8-1.2,4.2c-0.5,1.4-1.4,2.5-2.6,3.4c-0.5,0.4-1.1,0.7-1.7,1.1c-0.4,0.4-0.9,0.8-1.4,1.1
			c-0.4,0.2-0.7,0.3-1.1,0.4c-0.5,0.2-1.1,0.4-1.6,0.8c-0.4,0.3-0.8,0.6-1.1,1c-0.1,0.2-0.2,0.5-0.2,0.7c0,0.2,0,0.5,0.1,0.7
			c0.1,0.2,0.3,0.3,0.4,0.5c0.2,0.1,0.4,0.2,0.6,0.2c0.4,0.1,0.9,0.1,1.3,0c1.7-0.1,3.4-0.3,5.1-0.4c0.7,0,1.4-0.1,2.2-0.3
			c0.4-0.1,0.7-0.2,1.1-0.3c0.6-0.2,1.3-0.3,2-0.3c0.2,0,0.4,0,0.6,0.1c0.4,0.1,0.7,0.5,1.1,0.6c0.3,0,0.5,0,0.8-0.1
			c1.3-0.3,2.5-0.4,3.8-0.4c0.6,0,1.2-0.1,1.5-0.6c0.3-0.6-0.2-1.3-0.4-2c-0.1-0.4-0.2-0.9-0.2-1.3c-0.1-1.1-0.4-2.1-0.9-3.1
			c-0.4-0.8-1-1.7-0.7-2.5c0.2-0.3,0.3-0.6,0.3-0.9C287.7,272.6,284.6,273.1,283.8,272.9z"/>
		<path class="st11" d="M315.1,248.9c-1.7-0.7-3-2.1-3.7-3.7c-0.2-0.4-0.3-0.7-0.4-1.1c-0.5-1.2-1.3-2.3-2.2-3.1
			c-0.1-0.1-0.2-0.2-0.4-0.3c-0.1-0.1-0.3-0.1-0.5-0.1c-0.2,0-0.3,0.1-0.4,0.2c-0.1,0.1-0.2,0.3-0.2,0.4c-0.1,0.3-0.1,0.7-0.1,1
			c0.1,0.8,0.2,1.6,0.4,2.3l0.5,2.1c0.1,0.3,0.2,0.6,0.3,0.9c0.2,0.3,0.5,0.7,0.8,0.9c0.4,0.4,0.8,0.8,1.3,1.1
			c0.2,0.2,0.5,0.4,0.8,0.6c0.5,0.2,0.9,0.4,1.4,0.4c1.9,0.3,3.8,0.8,5.3,2c0,0,0-1.4,0-1.5c0-0.4-0.2-0.8-0.4-1.1
			C316.8,249.4,315.8,249.2,315.1,248.9z"/>
		<path class="st4" d="M315.1,248.9c-1.7-0.7-3-2.1-3.7-3.7c-0.2-0.4-0.3-0.7-0.4-1.1c-0.5-1.2-1.3-2.3-2.2-3.1
			c-0.1-0.1-0.2-0.2-0.4-0.3c-0.1-0.1-0.3-0.1-0.5-0.1c-0.2,0-0.3,0.1-0.4,0.2c-0.1,0.1-0.2,0.3-0.2,0.4c-0.1,0.3-0.1,0.7-0.1,1
			c0.1,0.8,0.2,1.6,0.4,2.3l0.5,2.1c0.1,0.3,0.2,0.6,0.3,0.9c0.2,0.3,0.5,0.7,0.8,0.9c0.4,0.4,0.8,0.8,1.3,1.1
			c0.2,0.2,0.5,0.4,0.8,0.6c0.5,0.2,0.9,0.4,1.4,0.4c1.9,0.3,3.8,0.8,5.3,2c0,0,0-1.4,0-1.5c0-0.4-0.2-0.8-0.4-1.1
			C316.8,249.4,315.8,249.2,315.1,248.9z"/>
		<path class="st10" d="M334.2,233c1.3,0,2.3-1,2.3-2.3c0-1.3-1-2.3-2.3-2.3c-1.3,0-2.3,1-2.3,2.3C331.9,232,332.9,233,334.2,233z"
			/>
		<path class="st10" d="M332.8,229.3c-0.6-0.1-1.3,0-1.8,0.3c-0.3,0.2-0.5,0.5-0.6,0.8c-0.5,0.9-0.9,1.8-1.2,2.8
			c-0.2,0.8-0.2,1.7-0.5,2.5c-0.5,1.5-1.7,2.8-1.8,4.4c-0.1,0.7,0.1,1.5-0.5,2c-0.1,0.1-0.3,0.2-0.4,0.3c-0.4,0.2-0.7,0.6-0.9,0.9
			c-0.2,0.3-0.4,0.6-0.6,0.9c-0.5,0.3-1.2,0.3-1.5,0.8c-0.2,0.5,0.4,1.2,0.2,1.7c-0.1,0.5-0.6,0.7-1,1c-0.4,0.5-0.7,1-0.9,1.6
			c-0.8,0.1-1.6,0.1-2.3-0.1c-0.8-0.2-1.5-0.5-2.1-1c0.6,1.6,0.7,3.3,0.7,5c0.1,0.5-0.1,1.1-0.4,1.5c1.8,0,3.6,0.5,5.4,0.9
			c0.8,0.3,1.6,0.3,2.3,0c0.4-0.2,0.8-0.5,1.1-0.9c1-1,2-2,2.2-3.4c0.1-0.8,0.1-1.5,0-2.3c0.1-1,0.3-1.9,0.6-2.8
			c0.5-1.9,0.9-3.8,1-5.8c0.1-1.2,1.1-2.2,1.7-3.2c1-2,2.1-4.1,2.2-6.4C333.8,230.3,333.5,229.4,332.8,229.3z"/>
		<path class="st4" d="M332.8,229.3c-0.6-0.1-1.3,0-1.8,0.3c-0.3,0.2-0.5,0.5-0.6,0.8c-0.5,0.9-0.9,1.8-1.2,2.8
			c-0.2,0.8-0.2,1.7-0.5,2.5c-0.5,1.5-1.7,2.8-1.8,4.4c-0.1,0.7,0.1,1.5-0.5,2c-0.1,0.1-0.3,0.2-0.4,0.3c-0.4,0.2-0.7,0.6-0.9,0.9
			c-0.2,0.3-0.4,0.6-0.6,0.9c-0.5,0.3-1.2,0.3-1.5,0.8c-0.2,0.5,0.4,1.2,0.2,1.7c-0.1,0.5-0.6,0.7-1,1c-0.4,0.5-0.7,1-0.9,1.6
			c-0.8,0.1-1.6,0.1-2.3-0.1c-0.8-0.2-1.5-0.5-2.1-1c0.6,1.6,0.7,3.3,0.7,5c0.1,0.5-0.1,1.1-0.4,1.5c1.8,0,3.6,0.5,5.4,0.9
			c0.8,0.3,1.6,0.3,2.3,0c0.4-0.2,0.8-0.5,1.1-0.9c1-1,2-2,2.2-3.4c0.1-0.8,0.1-1.5,0-2.3c0.1-1,0.3-1.9,0.6-2.8
			c0.5-1.9,0.9-3.8,1-5.8c0.1-1.2,1.1-2.2,1.7-3.2c1-2,2.1-4.1,2.2-6.4C333.8,230.3,333.5,229.4,332.8,229.3z"/>
		<path class="st10" d="M330.6,265.9c-2-0.9-3.4-2.7-5-4.1c-3-2.8-6.7-4.8-9.9-7.5c-2.1-1.8-4-3.8-6.3-5.3c-2-1.3-4.3-2.1-6.7-2.4
			c-0.3,0-0.6,0-0.8,0c-0.3,0.1-0.6,0.3-0.8,0.6c-1,1.2-1.9,2.4-2.7,3.7c-4,6.8-9.7,12.5-14.5,18.9c-0.2,0.1-0.2,0.4-0.3,0.6
			c0,0.2,0.1,0.4,0.2,0.6l1,1.9c0.5,1.1,1.4,2.3,2.5,2.1c0.5-0.2,1-0.4,1.3-0.9l4.3-4.1l4.5-4.3c2.7-2.5,5.4-5.1,7.1-8.4
			c1.4,2.3,3.8,3.9,5.4,6c0.6,0.8,1.1,1.7,1.7,2.6c0.9,1.4,1.9,2.7,2.9,4l5.2,6.6c0.7,0.9,1.5,1.8,2.4,2.4c1.2,0.8,2.7,1,4.2,1.1
			c2,0.2,3.9,0.2,5.9,0.2c1.5,0,3.1-0.1,4.4-0.8c1.3-0.7,2.4-2,2.4-3.5c-0.1-0.8-0.3-1.5-0.7-2.2
			C336.6,270.3,334.1,267.5,330.6,265.9z"/>
		<path class="st12" d="M335.6,234.1c1,0,1.8-0.8,1.8-1.8c0-1-0.8-1.8-1.8-1.8s-1.8,0.8-1.8,1.8
			C333.8,233.3,334.6,234.1,335.6,234.1z"/>
		<path class="st11" d="M335.2,231c0.4,0.8,0.5,1.7,0.2,2.5c-0.3,0.8-0.7,1.6-1.1,2.3c-0.4,0.7-0.9,1.4-1.5,2.1
			c2.7,0.1,5.3-0.9,7.7-2.2c1.9-1,3.8-2.3,4.9-4.2c-0.3,0.1-0.6,0.1-0.9,0c-0.3-0.1-0.6-0.2-0.9-0.4c-0.5-0.4-1-0.8-1.4-1.3
			l-1.4-1.5c-0.3-0.3-0.6-0.7-0.8-1.1c-0.3-0.5-0.4-1.2-0.4-1.8c-0.5,0.6-1.1,1.1-1.8,1.5c-1,0.6-2,1.1-3,1.7
			c-0.3,0.2-1.1,0.6-0.9,1C334.1,230.1,334.9,230.5,335.2,231z"/>
		<path class="st4" d="M335.2,231c0.4,0.8,0.5,1.7,0.2,2.5c-0.3,0.8-0.7,1.6-1.1,2.3c-0.4,0.7-0.9,1.4-1.5,2.1
			c2.7,0.1,5.3-0.9,7.7-2.2c1.9-1,3.8-2.3,4.9-4.2c-0.3,0.1-0.6,0.1-0.9,0c-0.3-0.1-0.6-0.2-0.9-0.4c-0.5-0.4-1-0.8-1.4-1.3
			l-1.4-1.5c-0.3-0.3-0.6-0.7-0.8-1.1c-0.3-0.5-0.4-1.2-0.4-1.8c-0.5,0.6-1.1,1.1-1.8,1.5c-1,0.6-2,1.1-3,1.7
			c-0.3,0.2-1.1,0.6-0.9,1C334.1,230.1,334.9,230.5,335.2,231z"/>
		<path class="st12" d="M335.2,231.3c-0.3,0.4-0.4,0.8-0.4,1.3c0,0.5,0.1,0.9,0.4,1.3c0.1,0.1,0.4,0.7,0.5,0.7
			c0.1,0,0.2-0.1,0.3-0.2c0.6-0.6,1.2-1.3,1.7-2c0.5-0.7,1.3-1.2,2.2-1.4c1.1-0.2,2.1,0.4,3,0.9c0.4,0.2,0.7,0.5,1,0.8
			c0.2,0.4,0.3,0.7,0.3,1.1c0.3,2.4,0.4,4.9,0.3,7.3c0,1.8-0.1,3.5-0.3,5.2c-0.2,0.9-0.4,1.8-0.6,2.7c-0.1,0.8-0.1,1.6-0.1,2.4v3.4
			c0,0.6,0,1.2,0.1,1.8c0.2,0.7,0.5,1.4,0.7,2.1c0.2,0.8,0.4,1.7,0.5,2.5l0.5,3.5c0.1,1.1,0.3,2.3-0.4,3.2c-0.3,0.4-0.7,0.7-1,1.1
			c-1.1,1.5-0.8,3.6-1.3,5.4c-0.4,1.3-1.1,2.5-2.2,3.4c-0.8,0.7-1.9,1.2-2.9,1c-1.4-0.3-2.3-1.7-2.6-3.1c-0.4-1.4-0.5-2.9-1.4-4.1
			c-0.7-1-1.7-1.6-2.7-2.2c-1-0.7-1.9-1.6-2.1-2.7c-0.1-0.5,0-1-0.1-1.5c-0.1-0.6-0.3-1.3-0.7-1.8c-0.4-0.5-0.9-0.9-1.5-1.2
			c-0.7-0.3-1.6-0.4-2-1c1-0.6,1.8-1.7,2.1-2.8c0.3-1.2,0.5-2.4,0.5-3.6l0.2-4c0.1-1.8,0.2-3.6,1-5.2c0.4-0.7,0.8-1.4,1.2-2.1
			c0.5-1,0.9-2,1.3-3.1c0.6-1.6,1.2-3.3,1.7-5c0.2-0.8,0.5-1.6,0.9-2.3C333.8,232.3,334.4,231.4,335.2,231.3z"/>
		<path class="st10" d="M326.3,257.4l1.1,0l0.2-1.6c0-0.3,0.1-0.6,0.2-0.9c0.2-0.3,0.4-0.6,0.6-0.9c1.1-1.5,1-3.5,1.2-5.3
			c0.3-2.4,1.4-4.7,2.3-6.9l2.1-4.6c0.2-0.4,0.3-0.8,0.4-1.2c0.1-0.4,0.1-0.9,0.1-1.4c0-0.7,0.2-3.3,0.2-4c0-0.3-0.6-0.1-0.7-0.4
			c-0.3-0.5-0.6,0.9-1.1,1.2c-0.5,0.4-0.8,0.8-1,1.4c-0.4,1.2-0.7,2.4-1.1,3.6c-0.4,1.2-1,2.3-1.9,3.1c-0.4,0.4-0.9,0.7-1.3,1.1
			c-1.3,1.3-1.4,3.3-1.5,5.1C326.3,246.9,326,257.4,326.3,257.4z"/>
		<path class="st10" d="M341.7,229.3c-1,0.4-1.6,1.5-1.9,2.6c-0.3,1.1-0.4,2.2-1,3.2c-1.3,2.3-4.6,2.9-5.5,5.4
			c-0.2,0.8-0.4,1.7-0.4,2.5c-0.2,1.8-0.7,3.4-0.9,5.2c-0.1,1.4-0.1,2.7,0.1,4.1l1.2,13.8c0.2,2,0.1,4.1-0.4,6.1
			c1.2,0.2,2.4,0,3.5-0.6c1.1-0.5,2.1-1.2,3.1-1.8c1.8-1,3.8-1.7,5.4-3c0.3-0.2,0.5-0.5,0.7-0.8c0.3-0.6,0.4-1.2,0.5-1.8
			c0.1-0.5,0.3-1,0.5-1.4c0.6-1.4,1.1-2.8,1.5-4.3c0.3-1,0.5-1.9,0.7-2.9c0.1-0.8,0.2-1.6,0.3-2.4c0.1-1.2,0.3-2.5,0.7-3.7
			c1-2.8,1.6-5.8,1.7-8.8c0-0.4,0-0.9-0.1-1.3c-0.2-0.5-0.4-1-0.7-1.5c-0.5-0.9-0.8-1.9-1.2-2.8c-1-2.1-2.8-3.7-4.7-5
			C343.8,229.6,342.7,228.9,341.7,229.3z"/>
		<path class="st11" d="M317.4,251.9c-0.8-0.4-1.6-1-2.2-1.7c-0.3-0.3-0.5-0.7-0.8-1.1c-0.7-0.8-1.7-1.3-2.8-1.6
			c-1.1-0.2-2.1-0.3-3.2-0.3c-0.7-0.1-1.5,0-2.1,0.3c-0.3,0.1-0.7,0.3-0.9,0.6c-0.2,0.3-0.4,0.6-0.5,0.9c-0.2,0.9,0.4,1.7,1.1,2.2
			c0.6,0.5,1.4,0.9,2.2,1.1c0.6,0.1,1.3,0.2,2,0.2c3.8,0.4,7.3,2.5,10.6,4.4c3,1.7,6,3.2,9.1,4.7c0.1-0.9,0.2-1.8,0.2-2.8
			c0-0.7-0.1-1.7-0.7-2.2c-0.8-0.5-2-0.6-2.9-0.9c-2-0.6-3.9-1.4-5.8-2.3C319.4,253,318.4,252.5,317.4,251.9z"/>
		<path class="st11" d="M334.2,230.2c3.8,0,6.9-3.1,6.9-6.9c0-3.8-3.1-6.9-6.9-6.9c-3.8,0-6.9,3.1-6.9,6.9
			C327.3,227.1,330.4,230.2,334.2,230.2z"/>
		<path class="st10" d="M343.6,237.1c-0.5,0.8-1,1.6-1.3,2.5c-0.8,1.7-2.2,3.2-2.8,5.1c-0.7,1.9-0.7,4.2-2,5.7
			c-0.3,0.2-0.5,0.5-0.6,0.9c0,0.2,0,0.4-0.1,0.6c-0.2,0.5-1.1,0.6-1.3,1.1c0,0.2,0,0.3-0.1,0.5c-0.1,0.4-0.6,0.4-0.9,0.6
			c-0.7,0.5-0.5,1.5-1,2.1c-0.2,0.2-0.5,0.4-0.8,0.5s-0.6,0.1-0.9,0.1c-0.6-0.1-1.2-0.4-1.8-0.7c-0.2-0.1-0.4-0.2-0.6-0.2
			c-0.3,0-0.5,0.1-0.7,0.2c-1.3,0.8-1.9,2.4-1.9,3.9c0.1,1.5,0.4,3,1.1,4.4c0.1,0.2,0.2,0.5,0.4,0.6c0.4,0.4,1.1,0.4,1.7,0.1
			c0.5-0.3,1.1-0.6,1.7-0.7c1.1-0.2,2.1,0.5,3.2,0.5c0.8-0.1,1.5-0.4,2.1-0.9c1.1-0.7,2.1-1.5,2.9-2.5c0.5-0.6,0.8-1.3,1.2-2
			c0.5-0.8,1.1-1.6,1.7-2.3l4-4.8c0.4-0.5,0.8-0.9,1.1-1.5c0.4-0.7,0.6-1.4,0.8-2.2c0.4-1.3,0.7-2.6,0.8-3.9c0-1.1-0.1-2.2-0.3-3.3
			c-0.1-1.1-0.4-2.1-0.8-3.1C347.3,236.7,345.2,235.2,343.6,237.1z"/>
		<path class="st13" d="M357.4,228.2c0-1.2-0.3-2.4-0.8-3.5c-0.6-1.1-1.4-2-2.3-2.7c0-2.2-0.8-4.2-2.3-5.9c-1.4-1.6-3.4-2.7-5.5-3
			c-0.4-2.1-1.5-3.9-3.2-5.2c-1.6-1.3-3.7-2-5.8-1.9c-2.1,0.1-4.1,0.8-5.7,2.2c-1.6,1.4-2.6,3.3-2.9,5.4c-2.8-0.6-5.5,0.2-5.9,1.9
			c-0.5,1.8,1.5,4,4.5,4.8c0.9,0.3,1.9,0.4,2.9,0.3c0.7,1,1.6,1.9,2.7,2.6c1.1,0.7,2.2,1.1,3.5,1.3c0.4,1.7,1.2,3.2,2.4,4.4
			c1.2,1.2,2.7,2.1,4.3,2.5c0.5,1.1,1.2,2.1,2.1,2.9c0,0.2,0,0.4,0,0.7c0,0.8,0.1,1.6,0.4,2.3c0.3,0.7,0.7,1.4,1.2,2
			c0.5,0.6,1.2,1,1.9,1.3c0.7,0.3,1.5,0.5,2.3,0.5c0.8,0,1.6-0.2,2.3-0.5c0.7-0.3,1.4-0.8,1.9-1.3c0.5-0.6,1-1.2,1.2-2
			c0.3-0.7,0.4-1.5,0.4-2.3c0-0.9-0.2-1.7-0.6-2.5C357,230.9,357.4,229.6,357.4,228.2z"/>
		<path class="st4" d="M324.9,215.8c0.5-1.8,3.1-2.6,5.9-1.9c0.3-2.1,1.4-4,3-5.4c1.6-1.4,3.7-2.2,5.8-2.2c0.2,0,0.4,0,0.6,0
			c-0.8-0.3-1.7-0.4-2.5-0.4c-2.1,0-4.2,0.8-5.8,2.2c-1.6,1.4-2.7,3.3-3,5.4c-2.8-0.6-5.5,0.2-5.9,1.9c-0.5,1.8,1.5,4,4.5,4.8
			c0.6,0.2,1.1,0.3,1.7,0.3C326.3,219.6,324.4,217.6,324.9,215.8z"/>
		<path class="st4" d="M347.2,235c0-0.2,0-0.4,0-0.7c-0.9-0.8-1.6-1.8-2.1-2.8c-1.6-0.4-3.1-1.3-4.3-2.5c-1.2-1.2-2-2.7-2.4-4.4
			c-1.2-0.2-2.4-0.6-3.5-1.3s-2-1.5-2.7-2.6c-0.6,0-1.1,0-1.7,0c0.7,0.9,1.6,1.7,2.6,2.3c1,0.6,2.1,1,3.3,1.2
			c0.4,1.7,1.2,3.2,2.4,4.4c1.2,1.2,2.7,2.1,4.3,2.5c0.5,1.1,1.2,2.1,2.1,2.9c0,0.2,0,0.4,0,0.7c0,1.6,0.6,3.1,1.6,4.2
			c1.1,1.1,2.6,1.8,4.1,1.8c-1.1-0.4-2.1-1.2-2.8-2.2C347.5,237.5,347.2,236.3,347.2,235z"/>
		<path class="st11" d="M337.3,225.8c0.5-0.4,0.5-1.1,0-1.8c-0.5-0.6-1.2-0.8-1.7-0.5c-0.5,0.4-0.5,1.1,0,1.8
			S336.9,226.2,337.3,225.8z"/>
		<path class="st8" d="M173.6,260.1l6.8-4c-0.9-1.6-2.1-3-3.5-4.1l-12.8,4l10-5.9c-2.5-1.4-5.3-2-8.1-2c-2.8,0-5.6,0.8-8,2.3
			c-2.4,1.4-4.4,3.5-5.8,5.9c-1.4,2.5-2.1,5.2-2.1,8c0,9,7.3,9.3,16.3,9.3c9,0,16.3-0.3,16.3-9.3c0-2.3-0.5-4.5-1.4-6.6L173.6,260.1
			z"/>
		<path class="st4" d="M175.3,268.8c-0.7-0.7-1.5-1.4-2.4-1.9c-1.2-0.8-2.5-1.6-4-1.9c-1.3-0.2-2.6,0-3.9-0.1
			c-2.3-0.1-4.4-1.1-5.9-2.7c-0.9-1-1.7-2.1-2.8-2.9c-1.2-0.7-2.7-1-4.1-0.8c-0.4,0.1-0.8,0.1-1.2,0.2c-0.6,1.8-1,3.6-1,5.5
			c0,9,7.3,9.3,16.3,9.3c4.4,0,8.3-0.1,11.2-1.2l-0.5-0.9C176.6,270.5,176,269.6,175.3,268.8z"/>
	</g>
</g>
</svg>
