<?xml version="1.0" encoding="utf-8"?>
<!-- Generator: Adobe Illustrator 23.0.2, SVG Export Plug-In . SVG Version: 6.00 Build 0)  -->
<svg version="1.1" id="Layer_1" xmlns="http://www.w3.org/2000/svg" xmlns:xlink="http://www.w3.org/1999/xlink" x="0px" y="0px"
	 viewBox="0 0 433.8 319.7" style="enable-background:new 0 0 433.8 319.7;" xml:space="preserve">
<style type="text/css">
	.st0{fill:#D58655;}
	.st1{fill:#3D3C54;}
	.st2{fill:#FFFFFF;}
	.st3{fill:#E6E7EB;}
	.st4{fill:url(#SVGID_1_);}
	.st5{fill:#E1AFB4;}
	.st6{fill:#2E2D40;}
	.st7{opacity:0.1;fill:#040006;enable-background:new    ;}
	.st8{fill:#F0EFEF;}
	.st9{fill:#CE6D35;}
	.st10{fill:#424241;}
	.st11{fill:#565453;}
	.st12{fill:#CC642F;}
</style>
<path class="st0" d="M378.1,29.4C265.2-9.7,93.9-11-43.9,41.4l42,362l1941.6-13.6l-17.6-268.4c3.3-14.2,89-141,5-92
	c-116.5,67.9-247.6,161.7-413,60c-133.7-82.1-452.9-50.5-577,0S619.1,112.9,378.1,29.4z"/>
<path class="st1" d="M689.2,75.4H687c-0.4,0-0.8,0.4-0.8,0.8v29.4c0,0.4,0.4,0.8,0.8,0.8h2.2c0.4,0,0.8-0.4,0.8-0.8V76.2
	C689.9,75.7,689.6,75.4,689.2,75.4z"/>
<path class="st1" d="M674.9,17.4H576c-7.3,0-13.3,6-13.3,13.3v228.8c0,7.4,6,13.3,13.3,13.3h98.9c7.3,0,13.3-6,13.3-13.3V30.7
	C688.2,23.4,682.3,17.4,674.9,17.4z"/>
<path class="st2" d="M670.7,24.1h-14.4v1.7c0,1.1-0.2,2.1-0.6,3.1c-0.4,1-1,1.9-1.8,2.7c-0.8,0.8-1.7,1.4-2.7,1.8
	c-1,0.4-2.1,0.6-3.1,0.6h-45.8c-1.1,0-2.1-0.2-3.1-0.6c-1-0.4-1.9-1-2.7-1.8s-1.4-1.7-1.8-2.7c-0.4-1-0.6-2.1-0.6-3.1v-1.7h-13.5
	c-2.6,0-5.2,1.1-7,2.9c-1.9,1.9-2.9,4.4-2.9,7.1v222.2c0,2.6,1.1,5.2,2.9,7.1c1.9,1.9,4.4,2.9,7,2.9h90.1c2.6,0,5.2-1.1,7-2.9
	c1.9-1.9,2.9-4.4,2.9-7.1V34.1c0-1.3-0.3-2.6-0.8-3.8c-0.5-1.2-1.2-2.3-2.2-3.2c-0.9-0.9-2-1.7-3.2-2.2
	C673.4,24.3,672.1,24.1,670.7,24.1L670.7,24.1z"/>
<path class="st3" d="M629.6,25.1h-14.9c-0.7,0-1.3,0.6-1.3,1.3v0.9c0,0.7,0.6,1.3,1.3,1.3h14.9c0.7,0,1.3-0.6,1.3-1.3v-0.9
	C630.9,25.6,630.3,25.1,629.6,25.1z"/>
<path class="st3" d="M635.5,28.9c1.1,0,2-0.9,2-2s-0.9-2-2-2s-2,0.9-2,2S634.4,28.9,635.5,28.9z"/>
<path class="st2" d="M626.2,172.1c13.1,0,23.7-10.6,23.7-23.8c0-13.1-10.6-23.8-23.7-23.8c-13.1,0-23.7,10.6-23.7,23.8
	C602.5,161.4,613.1,172.1,626.2,172.1z"/>
<path class="st0" d="M657.5,145c0,6.3-1.9,12.4-5.3,17.7c-3.5,5.2-8.4,9.3-14.2,11.7s-12.2,3-18.3,1.8c-6.2-1.2-11.8-4.3-16.2-8.7
	s-7.5-10.1-8.7-16.3s-0.6-12.6,1.8-18.4c2.4-5.8,6.5-10.8,11.7-14.3s11.4-5.4,17.6-5.4c4.2,0,8.3,0.8,12.1,2.4s7.3,3.9,10.3,6.9
	c2.9,3,5.3,6.5,6.9,10.3C656.6,136.7,657.5,140.8,657.5,145L657.5,145z M622.1,161.8l23.5-23.6c0.2-0.2,0.3-0.4,0.4-0.7
	c0.1-0.2,0.2-0.5,0.2-0.8s-0.1-0.5-0.2-0.8c-0.1-0.2-0.3-0.5-0.4-0.7l-2.9-2.9c-0.2-0.2-0.4-0.3-0.7-0.4c-0.2-0.1-0.5-0.2-0.8-0.2
	s-0.5,0.1-0.8,0.2c-0.2,0.1-0.5,0.3-0.7,0.4l-19.2,19.2l-9-9c-0.4-0.4-0.9-0.6-1.4-0.6s-1.1,0.2-1.4,0.6l-2.9,2.9
	c-0.4,0.4-0.6,0.9-0.6,1.5c0,0.5,0.2,1.1,0.6,1.4l13.3,13.3c0.2,0.2,0.4,0.3,0.7,0.4c0.2,0.1,0.5,0.2,0.8,0.2s0.5-0.1,0.8-0.2
	C621.6,162.2,621.9,162,622.1,161.8L622.1,161.8z"/>
<path class="st1" d="M566.6,67.8h-0.3c-0.4,0-0.8,0.4-0.8,0.8v7.6c0,0.4,0.3,0.8,0.8,0.8h0.3c0.4,0,0.8-0.4,0.8-0.8v-7.6
	C567.4,68.1,567.1,67.8,566.6,67.8z"/>
<path class="st1" d="M566.8,84.6h-0.6c-0.4,0-0.8,0.4-0.8,0.8v14.4c0,0.4,0.4,0.8,0.8,0.8h0.6c0.4,0,0.8-0.4,0.8-0.8V85.4
	C567.6,84.9,567.2,84.6,566.8,84.6z"/>
<path class="st1" d="M566.7,106.1h-0.5c-0.4,0-0.8,0.4-0.8,0.8v14.5c0,0.4,0.3,0.8,0.8,0.8h0.5c0.4,0,0.8-0.3,0.8-0.8v-14.5
	C567.5,106.5,567.2,106.1,566.7,106.1z"/>
<linearGradient id="SVGID_1_" gradientUnits="userSpaceOnUse" x1="1.4449" y1="2663.7075" x2="1.4449" y2="2663.6084" gradientTransform="matrix(1 0 0 1 539.0551 -2514.9631)">
	<stop  offset="0" style="stop-color:#808080;stop-opacity:0.251"/>
	<stop  offset="0.54" style="stop-color:#808080;stop-opacity:0.122"/>
	<stop  offset="1" style="stop-color:#808080;stop-opacity:0.102"/>
</linearGradient>
<path class="st4" d="M540.3,148.6c0.1,0.1,0.1,0.1,0.2,0.1c0.1,0,0.2,0,0.2,0C540.6,148.7,540.5,148.7,540.3,148.6z"/>
<path class="st5" d="M556,154.8l-0.4,2.2l-0.3,1.7l-0.6,3.1l-5.6,3.9c0,0-0.5-0.4-1.3-1.1c-2.3-1.9-7.1-5.7-10.6-7.8
	c-0.9-0.6-1.9-1-2.9-1.3L556,154.8z"/>
<path class="st1" d="M551.9,156.5c0,0,6.5,1.1,6.9-1.7s-3.3-4.3-6.5-4.5s-22.1,1.1-22.1,1.1s-3.3,4.5,8.7,5.2L551.9,156.5z"/>
<path class="st6" d="M566.2,64.7h-34v40.4h34V64.7z"/>
<path class="st7" d="M566.2,64.9h-34v40.4h34V64.9z"/>
<path class="st5" d="M492.3,133.8c-0.6,0.1-1.3,0.7-2.1,1.5c-3.4,3.4-8.3,11.4-8.3,11.4c-6.3-7.5,0.7-13.4,3.6-15.4
	c0.7-0.5,1.2-0.8,1.2-0.8L492.3,133.8z"/>
<path class="st5" d="M555.7,77.5c0,0,1.7,11.7,7.4,14.5c5.8,2.8-7.4,8-7.4,8l-18-6.7c0,0,10.2-3.3,8.2-13.2L555.7,77.5z"/>
<path class="st5" d="M536.3,148l-0.4,2.2l-0.3,1.7L535,155l-5.6,3.9c0,0-0.5-0.4-1.3-1.1c-2.3-1.9-7.1-5.7-10.6-7.8
	c-0.9-0.6-1.9-1-2.9-1.3L536.3,148z"/>
<path class="st6" d="M531.5,150.7c0,0,5.8,0,6.2-2.7s-3.2-4.3-6.2-4.5s-21.3,1.2-21.3,1.2s-2.6,5.3,8.9,6H531.5z"/>
<path class="st1" d="M572.4,194.5c-0.3-0.1-0.5-0.3-0.8-0.4l-0.7-0.9l-9-11.4v0.2c-0.1,1.9-0.7,17-5.8,18.4
	c-5.4,1.5-11.9,1.9-14.8-8.2c-3-10-8.4-32-13.9-33.3l8.3-6.8c0,0,5.5,6.4,7.7,12.6c-0.1-0.4-3.9-18.1-0.8-21.2h27.1
	c0,0,4.2,11.9,7.1,17.9c2.2,4.6,5.6,15.5,7.7,22.8C586.7,191.5,579.2,197.9,572.4,194.5z"/>
<path class="st7" d="M571.6,146.9c-4.2,2.5-22.6,1.5-28.5,1.1l-1.6-0.1c-0.2,0,0-0.1,0-0.1l0.2-1.7l4.5-11.3l23.9-13.9
	c-0.5,1.5-0.6,3.7-0.6,6.3C569.5,135.3,571.6,146.9,571.6,146.9z"/>
<path class="st8" d="M571.6,146.3c-4.2,2.5-22.6,1.5-28.5,1.1l-1.6-0.1h-0.3l0.3-0.1l1.5-0.4l3.2-12.7l23.9-13.9
	c-0.5,1.5-0.6,3.7-0.6,6.3C569.5,134.7,571.6,146.3,571.6,146.3z"/>
<path class="st7" d="M569.4,126.5c-4.9,1.1-15.5,4.4-19.6,12.4c-2.7,5.3-5,7.6-6.6,8.5l-1.6-0.1v-0.1l1.5-0.4l3.2-12.6l23.9-13.9
	C569.5,121.7,569.3,124,569.4,126.5z"/>
<path class="st7" d="M486.8,130.5l5.6,3.3c-0.6,0.1-1.3,0.7-2.1,1.5c-0.5-1.4-3.4-3.3-4.7-4.1C486.3,130.8,486.8,130.5,486.8,130.5z
	"/>
<path class="st7" d="M540.4,147.5c-0.1,0-0.1,0-0.2,0c-0.1,0-0.1,0-0.2-0.1C540.2,147.5,540.3,147.5,540.4,147.5L540.4,147.5z"/>
<path class="st9" d="M553.1,91.3c0,0-5,0.6-8.5-3.2c0,0-14.8,4.3-19.9,14c-5,9.7-39.2,28.7-39.2,28.7s5.9,3.3,5.4,5l22.5-13
	c0,0,8-5.8,10.2-7.1s14.5-9.3,17.1,12.5s0,19.2,0,19.2s3.7,1.3,9.1-9.1c5.4-10.4,22.1-12.8,22.1-12.8l0.9-11c0,0,3.3-7.3,0.8-10.3
	c-0.8-0.9-1.3-2-1.5-3.1c-0.4-2.8,0-7.4,5.9-11.3c9.1-6,12.6-10.8,12.6-10.8s0.2-3.5-5.4-5.2C579.6,72.1,557,63,557,63l-0.8,3.2
	L574,78.6c0,0-8.9,7.2-16,7.1C558.1,85.7,559.4,91.1,553.1,91.3z"/>
<path class="st7" d="M556.5,82.6c-0.4-1.5-0.8-3-1-4.5l-9.8,2.6c0.4,1.9,0.4,3.8-0.2,5.7c2,0.5,4.1,0.5,6.1-0.2
	C553.5,85.5,555.2,84.2,556.5,82.6L556.5,82.6z"/>
<path class="st5" d="M548.3,86.1c5.8,0,10.6-4.7,10.6-10.6s-4.7-10.6-10.6-10.6c-5.8,0-10.6,4.7-10.6,10.6S542.5,86.1,548.3,86.1z"
	/>
<path class="st7" d="M559.8,160.9c0,0,6.1,12.1,4.3,15.8L559.8,160.9z"/>
<path class="st6" d="M554,51c2.9,0.3,5.7,1.6,8.6,2.3c0.7,0.2,1.5,0.3,2.2,0.1c1.1-0.3,2-1.5,3.2-1.5c0.7,0,1.4,0.5,1.9,1
	c0.9,0.7,1.8,1.5,2.7,2.4c2,2.2,3.2,5.1,5.1,7.4c1.8,2.4,4.4,5.1,7,4c-1.8,6.9-7.2,11.2-13.5,11.6c-2.5,0.2-5-0.3-7.4,0.4
	c-0.6,0.2-1.2,0.4-1.9,0.5c-1.4,0-2.5-1.3-3.4-2.5c-2-2.9-3.6-6.2-5.9-8.9c-0.8-0.9-1.6-1.7-2.7-1.9c-1.1-0.2-2,0.4-3,0.8
	c-1.6,0.8-3.2,1.7-4.4,3.1s-2,3.5-1.5,5.3c0.3,1,0.9,1.9,0.9,3c0,1.7-1.5,2.9-1.8,4.6c-0.1,0.7-0.1,1.4-0.1,2.1
	c-0.1,2.3-1.6,4.1-3.1,5.5c-0.6,0.5-1.3,1.1-1.4,2c-0.1,0.6,0,1.2-0.1,1.8c-0.2,1.5-1.7,2.2-3,2.4c-1.5,0.2-3,0-4.5-0.5
	c1.8-0.9,2.9-3.3,2.5-5.5c-0.6-3-3.6-5.2-3.3-8.3c0.1-0.9,0.4-1.9,0.8-2.7c0.7-1.7,1.1-3.4,1.4-5.2c0.2-1.4,0.3-2.8-0.1-4.1
	c-0.4-1.2-1.2-2.1-1.9-3.1c-0.9-1.4-1.6-2.8-2.1-4.4c-0.2-0.5-0.3-1-0.2-1.5c0.2-0.6,0.5-1.1,0.9-1.5c1.7-1.7,3.4-3.6,5.6-4.1
	c1.1-0.2,2.1-0.2,3.2-0.1c1.9,0.1,3.7,0,5.6-0.2c1.5-0.2,4.1-0.2,5.4-1.1c1.2-0.9,1.9-2.1,3.4-2.7C550.8,51,552.4,50.8,554,51
	L554,51z"/>
<path class="st0" d="M750.6,272.3c8.5,0,15.4-1.2,15.4-2.6s-6.9-2.6-15.4-2.6s-15.4,1.2-15.4,2.6
	C735.3,271.1,742.2,272.3,750.6,272.3z"/>
<path class="st0" d="M757,265.4c0.7-0.6,1.2-1.3,1.5-2.2c0.2-0.9-0.2-1.9-1-2.3c-0.9-0.4-1.9,0.3-2.7,1s-1.6,1.4-2.6,1.3
	c0.5-0.5,0.9-1.1,1.1-1.7c0.2-0.7,0.3-1.4,0.1-2c0-0.3-0.2-0.5-0.3-0.8c-0.5-0.6-1.5-0.3-2.1,0.1c-2,1.4-2.5,4.1-2.6,6.5
	c-0.2-0.9,0-1.8,0-2.7c0-0.9-0.2-1.9-1-2.4c-0.5-0.3-1-0.4-1.5-0.4c-0.9,0-1.9,0.1-2.5,0.7c-0.8,0.8-0.6,2.2,0.1,3.1
	c0.7,0.9,1.7,1.5,2.6,2.1c0.7,0.4,1.4,1,1.8,1.8c0.1,0.1,0.1,0.2,0.1,0.3h5.6C754.8,267.2,756,266.4,757,265.4L757,265.4z"/>
<path class="st8" d="M541.9,273.4c5.6,0,10.1-0.8,10.1-1.7s-4.5-1.7-10.1-1.7s-10.1,0.8-10.1,1.7S536.3,273.4,541.9,273.4z"/>
<path class="st10" d="M546.1,268.9c0.5-0.4,0.8-0.9,1-1.5c0.1-0.3,0-0.6-0.1-0.9s-0.3-0.5-0.6-0.6c-0.6-0.2-1.3,0.2-1.8,0.6
	s-1.1,0.9-1.7,0.8c0.3-0.3,0.6-0.7,0.7-1.1c0.1-0.4,0.2-0.9,0.1-1.3c0-0.2-0.1-0.4-0.2-0.5c-0.3-0.4-1-0.2-1.4,0.1
	c-1.3,0.9-1.7,2.7-1.7,4.3c-0.1-0.6,0-1.2,0-1.8c0-0.6-0.2-1.3-0.7-1.6c-0.3-0.2-0.7-0.2-1-0.2c-0.6,0-1.2,0-1.6,0.5
	c-0.5,0.5-0.4,1.4,0.1,2c0.4,0.6,1.1,1,1.7,1.4c0.5,0.3,0.9,0.7,1.2,1.2c0,0.1,0.1,0.1,0.1,0.2h3.7
	C544.6,270.1,545.4,269.5,546.1,268.9L546.1,268.9z"/>
<path class="st8" d="M484.6,273.4c5.6,0,10.1-0.8,10.1-1.7s-4.5-1.7-10.1-1.7s-10.1,0.8-10.1,1.7S479,273.4,484.6,273.4z"/>
<path class="st11" d="M488.8,268.9c0.5-0.4,0.8-0.9,1-1.5c0.1-0.3,0-0.6-0.1-0.9s-0.3-0.5-0.6-0.6c-0.6-0.2-1.3,0.2-1.8,0.6
	s-1.1,0.9-1.7,0.8c0.3-0.3,0.6-0.7,0.7-1.1s0.2-0.9,0.1-1.3c0-0.2-0.1-0.4-0.2-0.5c-0.3-0.4-1-0.2-1.4,0.1c-1.3,0.9-1.7,2.7-1.7,4.3
	c-0.1-0.6,0-1.2,0-1.8c0-0.6-0.2-1.3-0.7-1.6c-0.3-0.2-0.7-0.2-1-0.2c-0.6,0-1.2,0-1.6,0.5c-0.5,0.5-0.4,1.4,0.1,2
	c0.4,0.6,1.1,1,1.7,1.4c0.5,0.3,0.9,0.7,1.2,1.2c0,0.1,0.1,0.1,0.1,0.2h3.7C487.3,270.1,488.1,269.5,488.8,268.9L488.8,268.9z"/>
<path class="st6" d="M777.1,272.4h-308v0.6h308V272.4z"/>
<path class="st12" d="M762.1,34.7c0,0-32.2-1.9-28.4,20.6c0,0-0.8,4,2.9,5.8c0,0,0.1-1.7,3.3-1.1c1.2,0.2,2.3,0.2,3.5,0.2
	c1.6-0.1,3.1-0.7,4.3-1.7l0,0c0,0,9-3.7,12.6-18.5c0,0,2.6-3.2,2.5-4.1l-5.4,2.3c0,0,1.9,3.9,0.4,7.2c0,0-0.2-7-1.2-6.9
	c-0.2,0-2.8,1.4-2.8,1.4s3.2,6.8,0.8,11.8c0,0,0.9-8.4-1.8-11.3l-3.8,2.2c0,0,3.7,7.1,1.2,12.8c0,0,0.6-8.8-2-12.3l-3.5,2.7
	c0,0,3.5,6.9,1.4,11.7c0,0-0.3-10.3-2.1-11c0,0-3,2.7-3.5,3.8c0,0,2.4,5,0.9,7.7c0,0-0.9-6.8-1.7-6.9c0,0-3,4.5-3.3,7.6
	c0,0,0.1-4.6,2.6-8.1c0,0-2.9,0.5-4.6,2.4c0,0,0.5-3.2,5.4-3.5c0,0,2.5-3.4,3.2-3.6c0,0-4.9-0.4-7.8,0.9c0,0,2.6-3,8.7-1.6l3.4-2.8
	c0,0-6.4-0.9-9.1,0.1c0,0,3.1-2.7,10-0.7l3.7-2.2c0,0-5.5-1.2-8.7-0.8c0,0,3.4-1.9,9.8,0.2l2.7-1.2c0,0-4-0.8-5.2-0.9
	c-1.2-0.1-1.2-0.4-1.2-0.4c2.5-0.4,5.1-0.1,7.5,0.8C756.5,37.2,762.2,35,762.1,34.7z"/>
<path class="st1" d="M718,22.7c0,0-14.5-0.9-12.8,9.3c0,0-0.3,1.8,1.3,2.6c0,0,0-0.8,1.5-0.5c0.5,0.1,1,0.1,1.6,0.1
	c0.7,0,1.4-0.3,1.9-0.8l0,0c0,0,4.1-1.7,5.7-8.4c0,0,1.2-1.5,1.1-1.8l-2.5,1c0,0,0.8,1.8,0.2,3.2c0,0-0.1-3.2-0.5-3.1
	c-0.1,0-1.3,0.6-1.3,0.6s1.4,3.1,0.4,5.3c0,0,0.4-3.8-0.8-5.1l-1.7,1c0,0,1.7,3.2,0.5,5.8c0,0,0.3-4-0.9-5.5l-1.6,1.2
	c0,0,1.6,3.1,0.6,5.3c0,0-0.1-4.6-1-5c0,0-1.4,1.2-1.6,1.7c0,0,1.1,2.3,0.4,3.5c0,0-0.4-3.1-0.8-3.1c0,0-1.4,2.1-1.5,3.4
	c0.1-1.3,0.5-2.6,1.2-3.6c-0.8,0.1-1.5,0.5-2.1,1.1c0,0,0.2-1.4,2.4-1.6c0,0,1.1-1.6,1.4-1.7c0,0-2.2-0.2-3.5,0.4
	c0,0,1.2-1.4,3.9-0.7L711,26c0,0-2.9-0.4-4.1,0c0,0,1.4-1.2,4.5-0.3l1.7-1c0,0-2.5-0.5-3.9-0.3c0,0,1.6-0.8,4.4,0.1l1.2-0.5
	c0,0-1.8-0.4-2.3-0.4c-0.5-0.1-0.6-0.2-0.6-0.2c1.1-0.2,2.3-0.1,3.4,0.4C715.5,23.9,718.1,22.9,718,22.7z"/>
<path class="st1" d="M494.2,178.4c0,0-14.5-0.9-12.8,9.3c0,0-0.3,1.8,1.3,2.6c0,0,0-0.8,1.5-0.5c0.5,0.1,1.1,0.1,1.6,0.1
	c0.7,0,1.4-0.3,1.9-0.8l0,0c0,0,4.1-1.7,5.7-8.4c0,0,1.2-1.5,1.1-1.8l-2.5,1c0,0,0.8,1.8,0.2,3.2c0,0-0.1-3.2-0.5-3.1
	c-0.1,0-1.3,0.6-1.3,0.6s1.4,3.1,0.4,5.3c0,0,0.4-3.8-0.8-5.1l-1.7,1c0,0,1.7,3.2,0.5,5.8c0,0,0.3-4-0.9-5.5l-1.6,1.2
	c0,0,1.6,3.1,0.6,5.3c0,0-0.1-4.6-1-5c0,0-1.4,1.2-1.6,1.7c0,0,1.1,2.3,0.4,3.5c0,0-0.4-3.1-0.8-3.1c0,0-1.4,2.1-1.5,3.4
	c0.1-1.3,0.5-2.6,1.2-3.6c-0.8,0.1-1.5,0.5-2.1,1.1c0,0,0.2-1.4,2.4-1.6c0,0,1.1-1.6,1.4-1.7c0,0-2.2-0.2-3.5,0.4
	c0,0,1.2-1.4,3.9-0.7l1.5-1.3c0,0-2.9-0.4-4.1,0c0,0,1.4-1.2,4.5-0.3l1.7-1c0,0-2.5-0.5-3.9-0.3c0,0,1.6-0.8,4.4,0.1l1.2-0.5
	c0,0-1.8-0.4-2.3-0.4c-0.5-0.1-0.6-0.2-0.6-0.2c1.1-0.2,2.3-0.1,3.4,0.4C491.7,179.5,494.3,178.6,494.2,178.4z"/>
</svg>
