<?xml version="1.0" encoding="utf-8"?>
<!-- Generator: Adobe Illustrator 23.0.2, SVG Export Plug-In . SVG Version: 6.00 Build 0)  -->
<svg version="1.1" id="Layer_1" xmlns="http://www.w3.org/2000/svg" xmlns:xlink="http://www.w3.org/1999/xlink" x="0px" y="0px"
	 viewBox="0 0 595.3 297.9" style="enable-background:new 0 0 595.3 297.9;" xml:space="preserve">
<style type="text/css">
	.st0{opacity:0.1;fill:#D58655;enable-background:new    ;}
	.st1{fill:none;stroke:#525360;stroke-width:2;stroke-miterlimit:10;}
	.st2{fill:#D58655;}
	.st3{opacity:0.25;fill:#040006;enable-background:new    ;}
	.st4{fill:#EECD71;}
	.st5{opacity:0.1;fill:#040006;enable-background:new    ;}
	.st6{fill:url(#SVGID_1_);}
	.st7{fill:#403F71;}
	.st8{fill:#535082;}
	.st9{fill:#D48797;}
	.st10{opacity:0.1;}
	.st11{opacity:0.2;fill:#040006;enable-background:new    ;}
	.st12{fill:#EECC70;}
</style>
<path class="st0" d="M297.6,300.4c164.4,0,297.6-16.2,297.6-36.2S462,228,297.6,228S0,244.2,0,264.2S133.3,300.4,297.6,300.4z"/>
<path class="st1" d="M509.3,281.9c0,0,15.5-19.8,14.3-39.4c-0.6-8.2,1.5-16.4,6-23.3c2.1-3.3,4.6-6.3,7.3-9.2"/>
<path class="st2" d="M536.1,197.7c-1.1,2.7,0.7,12.7,0.7,12.7s8.1-6,9.2-8.7c0.5-1.3,0.5-2.8-0.1-4.1c-0.6-1.3-1.6-2.3-2.9-2.9
	c-1.3-0.5-2.8-0.5-4.1,0.1C537.6,195.3,536.6,196.4,536.1,197.7z"/>
<path class="st2" d="M521.8,209.6c0.6,2.9,7.5,10.3,7.5,10.3s3.6-9.4,3-12.3c-0.1-0.7-0.4-1.3-0.8-1.9c-0.4-0.6-0.9-1.1-1.5-1.5
	c-0.6-0.4-1.2-0.7-1.9-0.8c-0.7-0.1-1.4-0.1-2.1,0c-0.7,0.1-1.3,0.4-1.9,0.8c-0.6,0.4-1.1,0.9-1.5,1.5c-0.4,0.6-0.7,1.2-0.8,1.9
	C521.7,208.2,521.7,208.9,521.8,209.6z"/>
<path class="st2" d="M511.8,235.7c2,2.2,11.6,5.1,11.6,5.1s-1.7-10-3.6-12.2c-0.5-0.5-1-1-1.7-1.3c-0.6-0.3-1.3-0.5-2-0.5
	c-0.7,0-1.4,0.1-2.1,0.3c-0.7,0.2-1.3,0.6-1.8,1.1c-0.5,0.5-1,1-1.3,1.7c-0.3,0.6-0.5,1.3-0.5,2c0,0.7,0.1,1.4,0.3,2.1
	C511,234.6,511.4,235.2,511.8,235.7z"/>
<path class="st2" d="M508.7,257.2c1.6,2.5,10.6,7,10.6,7s0-10.1-1.5-12.6c-0.4-0.6-0.9-1.1-1.4-1.5c-0.6-0.4-1.2-0.7-1.9-0.9
	c-0.7-0.2-1.4-0.2-2.1-0.1c-0.7,0.1-1.4,0.4-2,0.7c-0.6,0.4-1.1,0.9-1.5,1.4s-0.7,1.2-0.9,1.9c-0.2,0.7-0.2,1.4-0.1,2.1
	C508.1,256,508.3,256.6,508.7,257.2z"/>
<path class="st2" d="M539.5,224.6c-2.7,1.1-12.7-0.6-12.7-0.6s5.9-8.2,8.6-9.3c1.3-0.5,2.8-0.5,4.1,0c1.3,0.5,2.3,1.6,2.9,2.9
	c0.5,1.3,0.5,2.8,0,4.1C541.9,223,540.8,224,539.5,224.6z"/>
<path class="st2" d="M535.5,249.6c-2.9,0.3-11.9-4.3-11.9-4.3s8.1-6.1,11-6.3c0.7-0.1,1.4,0,2.1,0.2c0.7,0.2,1.3,0.6,1.8,1
	c0.5,0.5,1,1,1.3,1.6c0.3,0.6,0.5,1.3,0.6,2c0.1,0.7,0,1.4-0.2,2.1c-0.2,0.7-0.6,1.3-1,1.8c-0.5,0.5-1,1-1.6,1.3
	C536.9,249.4,536.2,249.6,535.5,249.6z"/>
<path class="st2" d="M528.4,273.5c-2.9,0.8-12.5-2.2-12.5-2.2s6.9-7.4,9.8-8.1c1.4-0.4,2.8-0.2,4.1,0.6c1.2,0.7,2.1,1.9,2.5,3.3
	c0.4,1.4,0.2,2.8-0.6,4.1C530.9,272.2,529.7,273.1,528.4,273.5z"/>
<path class="st3" d="M536.1,197.7c-1.1,2.7,0.7,12.7,0.7,12.7s8.1-6,9.2-8.7c0.5-1.3,0.5-2.8-0.1-4.1c-0.6-1.3-1.6-2.3-2.9-2.9
	c-1.3-0.5-2.8-0.5-4.1,0.1C537.6,195.3,536.6,196.4,536.1,197.7z"/>
<path class="st3" d="M521.8,209.6c0.6,2.9,7.5,10.3,7.5,10.3s3.6-9.4,3-12.3c-0.1-0.7-0.4-1.3-0.8-1.9c-0.4-0.6-0.9-1.1-1.5-1.5
	c-0.6-0.4-1.2-0.7-1.9-0.8c-0.7-0.1-1.4-0.1-2.1,0c-0.7,0.1-1.3,0.4-1.9,0.8c-0.6,0.4-1.1,0.9-1.5,1.5c-0.4,0.6-0.7,1.2-0.8,1.9
	C521.7,208.2,521.7,208.9,521.8,209.6z"/>
<path class="st3" d="M511.8,235.7c2,2.2,11.6,5.1,11.6,5.1s-1.7-10-3.6-12.2c-0.5-0.5-1-1-1.7-1.3c-0.6-0.3-1.3-0.5-2-0.5
	c-0.7,0-1.4,0.1-2.1,0.3c-0.7,0.2-1.3,0.6-1.8,1.1c-0.5,0.5-1,1-1.3,1.7c-0.3,0.6-0.5,1.3-0.5,2c0,0.7,0.1,1.4,0.3,2.1
	C511,234.6,511.4,235.2,511.8,235.7z"/>
<path class="st3" d="M508.7,257.2c1.6,2.5,10.6,7,10.6,7s0-10.1-1.5-12.6c-0.4-0.6-0.9-1.1-1.4-1.5c-0.6-0.4-1.2-0.7-1.9-0.9
	c-0.7-0.2-1.4-0.2-2.1-0.1c-0.7,0.1-1.4,0.4-2,0.7c-0.6,0.4-1.1,0.9-1.5,1.4s-0.7,1.2-0.9,1.9c-0.2,0.7-0.2,1.4-0.1,2.1
	C508.1,256,508.3,256.6,508.7,257.2z"/>
<path class="st3" d="M539.5,224.6c-2.7,1.1-12.7-0.6-12.7-0.6s5.9-8.2,8.6-9.3c1.3-0.5,2.8-0.5,4.1,0c1.3,0.5,2.3,1.6,2.9,2.9
	c0.5,1.3,0.5,2.8,0,4.1C541.9,223,540.8,224,539.5,224.6z"/>
<path class="st3" d="M535.5,249.6c-2.9,0.3-11.9-4.3-11.9-4.3s8.1-6.1,11-6.3c0.7-0.1,1.4,0,2.1,0.2c0.7,0.2,1.3,0.6,1.8,1
	c0.5,0.5,1,1,1.3,1.6c0.3,0.6,0.5,1.3,0.6,2c0.1,0.7,0,1.4-0.2,2.1c-0.2,0.7-0.6,1.3-1,1.8c-0.5,0.5-1,1-1.6,1.3
	C536.9,249.4,536.2,249.6,535.5,249.6z"/>
<path class="st3" d="M528.4,273.5c-2.9,0.8-12.5-2.2-12.5-2.2s6.9-7.4,9.8-8.1c1.4-0.4,2.8-0.2,4.1,0.6c1.2,0.7,2.1,1.9,2.5,3.3
	c0.4,1.4,0.2,2.8-0.6,4.1C530.9,272.2,529.7,273.1,528.4,273.5z"/>
<path class="st1" d="M509.4,281.1c0,0,22.2-11.8,29-30.2c2.8-7.8,8-14.4,14.9-18.9c3.3-2.1,6.8-3.9,10.4-5.4"/>
<path class="st2" d="M568,215c-2.1,2.1-4.5,11.9-4.5,11.9s9.9-2.2,12-4.2c1-1,1.6-2.3,1.6-3.8c0-1.4-0.5-2.8-1.5-3.8
	c-1-1-2.3-1.6-3.8-1.6C570.4,213.4,569,214,568,215z"/>
<path class="st2" d="M550.2,220.1c-0.7,2.9,2.7,12.4,2.7,12.4s7.1-7.2,7.8-10.1c0.2-0.7,0.2-1.4,0.1-2.1c-0.1-0.7-0.4-1.4-0.7-1.9
	c-0.4-0.6-0.9-1.1-1.4-1.5c-0.6-0.4-1.2-0.7-1.9-0.8c-0.7-0.2-1.4-0.2-2.1-0.1c-0.7,0.1-1.4,0.4-1.9,0.7c-0.6,0.4-1.1,0.9-1.5,1.4
	C550.6,218.8,550.3,219.4,550.2,220.1z"/>
<path class="st2" d="M530.4,239.9c0.9,2.8,8.6,9.4,8.6,9.4s2.5-9.8,1.6-12.6c-0.2-0.7-0.6-1.3-1-1.8c-0.5-0.5-1-1-1.6-1.3
	c-0.6-0.3-1.3-0.5-2-0.6c-0.7-0.1-1.4,0-2.1,0.2c-0.7,0.2-1.3,0.6-1.8,1c-0.5,0.5-1,1-1.3,1.6c-0.3,0.6-0.5,1.3-0.6,2
	C530.1,238.5,530.2,239.2,530.4,239.9z"/>
<path class="st2" d="M518.9,258.3c0.4,2.9,6.9,10.7,6.9,10.7s4.1-9.2,3.7-12.2c-0.1-0.7-0.3-1.4-0.7-2c-0.4-0.6-0.8-1.1-1.4-1.6
	c-0.6-0.4-1.2-0.7-1.9-0.9c-0.7-0.2-1.4-0.2-2.1-0.1c-0.7,0.1-1.4,0.3-2,0.7c-0.6,0.4-1.1,0.8-1.6,1.4c-0.4,0.6-0.7,1.2-0.9,1.9
	C518.8,256.9,518.8,257.6,518.9,258.3z"/>
<path class="st2" d="M560.3,240.9c-3-0.1-11.4-5.7-11.4-5.7s8.7-5.1,11.7-5.1c1.4,0,2.8,0.6,3.7,1.7c1,1,1.5,2.4,1.5,3.8
	c0,1.4-0.6,2.8-1.7,3.7S561.7,241,560.3,240.9L560.3,240.9z"/>
<path class="st2" d="M546.5,262.3c-2.8-1-9.2-8.8-9.2-8.8s9.8-2.3,12.6-1.3c1.3,0.5,2.4,1.4,3.1,2.7c0.6,1.3,0.7,2.7,0.3,4.1
	c-0.5,1.3-1.4,2.4-2.7,3.1C549.3,262.6,547.8,262.7,546.5,262.3L546.5,262.3z"/>
<path class="st2" d="M530.3,281.1c-2.9-0.5-10.5-7.1-10.5-7.1s9.3-3.9,12.2-3.4c1.4,0.2,2.7,1,3.5,2.2c0.8,1.2,1.2,2.6,0.9,4
	c-0.2,1.4-1,2.7-2.1,3.5C533.1,281,531.7,281.4,530.3,281.1z"/>
<path class="st4" d="M288.9,247.9c11,0,20-9.5,20-21.2c0-11.7-9-21.2-20-21.2c-11,0-20,9.5-20,21.2
	C268.9,238.4,277.8,247.9,288.9,247.9z"/>
<path class="st5" d="M288.9,247.9c11,0,20-9.5,20-21.2c0-11.7-9-21.2-20-21.2c-11,0-20,9.5-20,21.2
	C268.9,238.4,277.8,247.9,288.9,247.9z"/>
<path class="st4" d="M292.3,247.9c11,0,20-9.3,20-20.8c0-11.5-9-20.8-20-20.8c-11,0-20,9.3-20,20.8
	C272.3,238.6,281.3,247.9,292.3,247.9z"/>
<path class="st4" d="M300.4,246l-2.1-1.2c0,0-1,4.1-0.7,7c0,0.3,0.2,0.6,0.3,0.8c0.2,0.2,0.5,0.4,0.7,0.5c4.8,1.2,27.6,6.3,43.3-0.9
	c0.2-0.1,0.4-0.3,0.6-0.5c0.1-0.2,0.2-0.4,0.3-0.7c0.2-1.8-0.5-5.5-0.8-6.2C341.5,243.3,300.4,246,300.4,246z"/>
<path class="st5" d="M300.4,246l-2.1-1.2c0,0-1,4.1-0.7,7c0,0.3,0.2,0.6,0.3,0.8c0.2,0.2,0.5,0.4,0.7,0.5c4.8,1.2,27.6,6.3,43.3-0.9
	c0.2-0.1,0.4-0.3,0.6-0.5c0.1-0.2,0.2-0.4,0.3-0.7c0.2-1.8-0.5-5.5-0.8-6.2C341.5,243.3,300.4,246,300.4,246z"/>
<path class="st4" d="M320.2,249.8c12.1,0,21.9-2.2,21.9-4.9c0-2.7-9.8-4.9-21.9-4.9c-12.1,0-21.9,2.2-21.9,4.9
	C298.3,247.6,308.1,249.8,320.2,249.8z"/>
<path class="st4" d="M308.8,238.7l-2.1-1.2c0,0-1,4.1-0.7,7c0,0.3,0.2,0.6,0.3,0.8c0.2,0.2,0.5,0.4,0.7,0.5
	c4.8,1.2,27.6,6.3,43.3-0.9c0.2-0.1,0.4-0.3,0.6-0.5c0.1-0.2,0.2-0.4,0.3-0.7c0.2-1.8-0.5-5.5-0.8-6.2
	C349.9,236,308.8,238.7,308.8,238.7z"/>
<path class="st5" d="M308.8,238.7l-2.1-1.2c0,0-1,4.1-0.7,7c0,0.3,0.2,0.6,0.3,0.8c0.2,0.2,0.5,0.4,0.7,0.5
	c4.8,1.2,27.6,6.3,43.3-0.9c0.2-0.1,0.4-0.3,0.6-0.5c0.1-0.2,0.2-0.4,0.3-0.7c0.2-1.8-0.5-5.5-0.8-6.2
	C349.9,236,308.8,238.7,308.8,238.7z"/>
<path class="st4" d="M328.6,242.5c12.1,0,21.9-2.2,21.9-4.9s-9.8-4.9-21.9-4.9s-21.9,2.2-21.9,4.9S316.5,242.5,328.6,242.5z"/>
<path class="st4" d="M316.2,229.1l-2.1-1.2c0,0-1,4.1-0.7,7c0,0.3,0.2,0.6,0.3,0.8c0.2,0.2,0.5,0.4,0.7,0.5
	c4.8,1.2,27.6,6.3,43.3-0.9c0.2-0.1,0.4-0.3,0.6-0.5c0.1-0.2,0.2-0.4,0.3-0.7c0.2-1.8-0.5-5.5-0.8-6.2
	C357.3,226.4,316.2,229.1,316.2,229.1z"/>
<path class="st5" d="M316.2,229.1l-2.1-1.2c0,0-1,4.1-0.7,7c0,0.3,0.2,0.6,0.3,0.8c0.2,0.2,0.5,0.4,0.7,0.5
	c4.8,1.2,27.6,6.3,43.3-0.9c0.2-0.1,0.4-0.3,0.6-0.5c0.1-0.2,0.2-0.4,0.3-0.7c0.2-1.8-0.5-5.5-0.8-6.2
	C357.3,226.4,316.2,229.1,316.2,229.1z"/>
<path class="st4" d="M336,232.9c12.1,0,21.9-2.2,21.9-4.9c0-2.7-9.8-4.9-21.9-4.9c-12.1,0-21.9,2.2-21.9,4.9
	C314.1,230.7,323.9,232.9,336,232.9z"/>
<path class="st4" d="M308,219.2l-2.1-1.2c0,0-1,4.1-0.7,7c0,0.3,0.2,0.6,0.3,0.8c0.2,0.2,0.5,0.4,0.7,0.5c4.8,1.2,27.6,6.3,43.3-0.9
	c0.2-0.1,0.4-0.3,0.6-0.5c0.1-0.2,0.2-0.4,0.3-0.7c0.2-1.8-0.5-5.5-0.8-6.2C349.1,216.5,308,219.2,308,219.2z"/>
<path class="st5" d="M308,219.2l-2.1-1.2c0,0-1,4.1-0.7,7c0,0.3,0.2,0.6,0.3,0.8c0.2,0.2,0.5,0.4,0.7,0.5c4.8,1.2,27.6,6.3,43.3-0.9
	c0.2-0.1,0.4-0.3,0.6-0.5c0.1-0.2,0.2-0.4,0.3-0.7c0.2-1.8-0.5-5.5-0.8-6.2C349.1,216.5,308,219.2,308,219.2z"/>
<path class="st4" d="M327.8,222.9c12.1,0,21.9-2.2,21.9-4.9c0-2.7-9.8-4.9-21.9-4.9c-12.1,0-21.9,2.2-21.9,4.9
	C305.9,220.7,315.7,222.9,327.8,222.9z"/>
<path class="st4" d="M326.4,211.2l-2.1-1.2c0,0-1,4.1-0.7,7c0,0.3,0.2,0.6,0.3,0.8s0.5,0.4,0.7,0.5c4.8,1.2,27.6,6.3,43.3-0.9
	c0.2-0.1,0.4-0.3,0.6-0.5c0.1-0.2,0.2-0.4,0.3-0.7c0.2-1.8-0.5-5.5-0.8-6.2C367.5,208.5,326.4,211.2,326.4,211.2z"/>
<path class="st5" d="M326.4,211.2l-2.1-1.2c0,0-1,4.1-0.7,7c0,0.3,0.2,0.6,0.3,0.8s0.5,0.4,0.7,0.5c4.8,1.2,27.6,6.3,43.3-0.9
	c0.2-0.1,0.4-0.3,0.6-0.5c0.1-0.2,0.2-0.4,0.3-0.7c0.2-1.8-0.5-5.5-0.8-6.2C367.5,208.5,326.4,211.2,326.4,211.2z"/>
<path class="st4" d="M346.2,214.9c12.1,0,21.9-2.2,21.9-4.9c0-2.7-9.8-4.9-21.9-4.9c-12.1,0-21.9,2.2-21.9,4.9
	C324.3,212.7,334.1,214.9,346.2,214.9z"/>
<path class="st4" d="M314,205.8l-2.1-1.2c0,0-1,4.1-0.7,7c0,0.3,0.2,0.6,0.3,0.8s0.5,0.4,0.7,0.5c4.8,1.2,27.6,6.3,43.3-0.9
	c0.2-0.1,0.4-0.3,0.6-0.5c0.1-0.2,0.2-0.4,0.3-0.7c0.2-1.8-0.5-5.5-0.8-6.2C355.1,203.1,314,205.8,314,205.8z"/>
<path class="st5" d="M314,205.8l-2.1-1.2c0,0-1,4.1-0.7,7c0,0.3,0.2,0.6,0.3,0.8s0.5,0.4,0.7,0.5c4.8,1.2,27.6,6.3,43.3-0.9
	c0.2-0.1,0.4-0.3,0.6-0.5c0.1-0.2,0.2-0.4,0.3-0.7c0.2-1.8-0.5-5.5-0.8-6.2C355.1,203.1,314,205.8,314,205.8z"/>
<path class="st4" d="M333.8,209.6c12.1,0,21.9-2.2,21.9-4.9c0-2.7-9.8-4.9-21.9-4.9c-12.1,0-21.9,2.2-21.9,4.9
	C311.9,207.4,321.7,209.6,333.8,209.6z"/>
<path class="st4" d="M322.3,195.4l-2.1-1.2c0,0-1,4.1-0.7,7c0,0.3,0.2,0.6,0.3,0.8s0.5,0.4,0.7,0.5c4.8,1.2,27.6,6.3,43.3-0.9
	c0.2-0.1,0.4-0.3,0.6-0.5c0.1-0.2,0.2-0.4,0.3-0.7c0.2-1.8-0.5-5.5-0.8-6.2C363.4,192.7,322.3,195.4,322.3,195.4z"/>
<path class="st5" d="M322.3,195.4l-2.1-1.2c0,0-1,4.1-0.7,7c0,0.3,0.2,0.6,0.3,0.8s0.5,0.4,0.7,0.5c4.8,1.2,27.6,6.3,43.3-0.9
	c0.2-0.1,0.4-0.3,0.6-0.5c0.1-0.2,0.2-0.4,0.3-0.7c0.2-1.8-0.5-5.5-0.8-6.2C363.4,192.7,322.3,195.4,322.3,195.4z"/>
<path class="st4" d="M342.1,199.2c12.1,0,21.9-2.2,21.9-4.9c0-2.7-9.8-4.9-21.9-4.9c-12.1,0-21.9,2.2-21.9,4.9
	C320.2,197,330,199.2,342.1,199.2z"/>
<path class="st4" d="M326.4,183.1l-2.1-1.2c0,0-1,4.1-0.7,7c0,0.3,0.2,0.6,0.3,0.8c0.2,0.2,0.5,0.4,0.7,0.5
	c4.8,1.2,27.6,6.3,43.3-0.9c0.2-0.1,0.4-0.3,0.6-0.5c0.1-0.2,0.2-0.4,0.3-0.7c0.2-1.8-0.5-5.5-0.8-6.2
	C367.5,180.4,326.4,183.1,326.4,183.1z"/>
<path class="st5" d="M326.4,183.1l-2.1-1.2c0,0-1,4.1-0.7,7c0,0.3,0.2,0.6,0.3,0.8c0.2,0.2,0.5,0.4,0.7,0.5
	c4.8,1.2,27.6,6.3,43.3-0.9c0.2-0.1,0.4-0.3,0.6-0.5c0.1-0.2,0.2-0.4,0.3-0.7c0.2-1.8-0.5-5.5-0.8-6.2
	C367.5,180.4,326.4,183.1,326.4,183.1z"/>
<path class="st4" d="M346.2,186.9c12.1,0,21.9-2.2,21.9-4.9c0-2.7-9.8-4.9-21.9-4.9c-12.1,0-21.9,2.2-21.9,4.9
	C324.3,184.7,334.1,186.9,346.2,186.9z"/>
<path class="st4" d="M363.3,248.9l-2.1-1.2c0,0-1,4.1-0.7,7c0,0.3,0.2,0.6,0.3,0.8s0.5,0.4,0.7,0.5c4.8,1.2,27.6,6.3,43.3-0.9
	c0.2-0.1,0.4-0.3,0.6-0.5c0.1-0.2,0.2-0.4,0.3-0.7c0.2-1.8-0.5-5.5-0.8-6.2C404.4,246.2,363.3,248.9,363.3,248.9z"/>
<path class="st5" d="M363.3,248.9l-2.1-1.2c0,0-1,4.1-0.7,7c0,0.3,0.2,0.6,0.3,0.8s0.5,0.4,0.7,0.5c4.8,1.2,27.6,6.3,43.3-0.9
	c0.2-0.1,0.4-0.3,0.6-0.5c0.1-0.2,0.2-0.4,0.3-0.7c0.2-1.8-0.5-5.5-0.8-6.2C404.4,246.2,363.3,248.9,363.3,248.9z"/>
<path class="st4" d="M383.1,252.6c12.1,0,21.9-2.2,21.9-4.9c0-2.7-9.8-4.9-21.9-4.9c-12.1,0-21.9,2.2-21.9,4.9
	C361.2,250.4,371,252.6,383.1,252.6z"/>
<path class="st4" d="M370.7,239.3l-2.1-1.2c0,0-1,4.1-0.7,7c0,0.3,0.2,0.6,0.3,0.8c0.2,0.2,0.5,0.4,0.7,0.5
	c4.8,1.2,27.6,6.3,43.3-0.9c0.2-0.1,0.4-0.3,0.6-0.5c0.1-0.2,0.2-0.4,0.3-0.7c0.2-1.8-0.5-5.5-0.8-6.2
	C411.8,236.6,370.7,239.3,370.7,239.3z"/>
<path class="st5" d="M370.7,239.3l-2.1-1.2c0,0-1,4.1-0.7,7c0,0.3,0.2,0.6,0.3,0.8c0.2,0.2,0.5,0.4,0.7,0.5
	c4.8,1.2,27.6,6.3,43.3-0.9c0.2-0.1,0.4-0.3,0.6-0.5c0.1-0.2,0.2-0.4,0.3-0.7c0.2-1.8-0.5-5.5-0.8-6.2
	C411.8,236.6,370.7,239.3,370.7,239.3z"/>
<path class="st4" d="M390.5,243.1c12.1,0,21.9-2.2,21.9-4.9c0-2.7-9.8-4.9-21.9-4.9c-12.1,0-21.9,2.2-21.9,4.9
	C368.6,240.8,378.4,243.1,390.5,243.1z"/>
<path class="st4" d="M362.5,229.3l-2.1-1.2c0,0-1,4.1-0.7,7c0,0.3,0.2,0.6,0.3,0.8c0.2,0.2,0.5,0.4,0.7,0.5
	c4.8,1.2,27.6,6.3,43.3-0.9c0.2-0.1,0.4-0.3,0.6-0.5c0.1-0.2,0.2-0.4,0.3-0.7c0.2-1.8-0.5-5.5-0.8-6.2
	C403.6,226.6,362.5,229.3,362.5,229.3z"/>
<path class="st5" d="M362.5,229.3l-2.1-1.2c0,0-1,4.1-0.7,7c0,0.3,0.2,0.6,0.3,0.8c0.2,0.2,0.5,0.4,0.7,0.5
	c4.8,1.2,27.6,6.3,43.3-0.9c0.2-0.1,0.4-0.3,0.6-0.5c0.1-0.2,0.2-0.4,0.3-0.7c0.2-1.8-0.5-5.5-0.8-6.2
	C403.6,226.6,362.5,229.3,362.5,229.3z"/>
<path class="st4" d="M382.3,233.1c12.1,0,21.9-2.2,21.9-4.9c0-2.7-9.8-4.9-21.9-4.9c-12.1,0-21.9,2.2-21.9,4.9
	C360.4,230.9,370.2,233.1,382.3,233.1z"/>
<path class="st4" d="M380.9,221.3l-2.1-1.2c0,0-1,4.1-0.7,7c0,0.3,0.2,0.6,0.3,0.8c0.2,0.2,0.5,0.4,0.7,0.5
	c4.8,1.2,27.6,6.3,43.3-0.9c0.2-0.1,0.4-0.3,0.6-0.5c0.1-0.2,0.2-0.4,0.3-0.7c0.2-1.8-0.5-5.5-0.8-6.2
	C422.1,218.6,380.9,221.3,380.9,221.3z"/>
<path class="st5" d="M380.9,221.3l-2.1-1.2c0,0-1,4.1-0.7,7c0,0.3,0.2,0.6,0.3,0.8c0.2,0.2,0.5,0.4,0.7,0.5
	c4.8,1.2,27.6,6.3,43.3-0.9c0.2-0.1,0.4-0.3,0.6-0.5c0.1-0.2,0.2-0.4,0.3-0.7c0.2-1.8-0.5-5.5-0.8-6.2
	C422.1,218.6,380.9,221.3,380.9,221.3z"/>
<path class="st4" d="M400.7,225.1c12.1,0,21.9-2.2,21.9-4.9c0-2.7-9.8-4.9-21.9-4.9c-12.1,0-21.9,2.2-21.9,4.9
	C378.9,222.9,388.7,225.1,400.7,225.1z"/>
<path class="st4" d="M368.5,215.9l-2.1-1.2c0,0-1,4.1-0.7,7c0,0.3,0.2,0.6,0.3,0.8c0.2,0.2,0.5,0.4,0.7,0.5
	c4.8,1.2,27.6,6.3,43.3-0.9c0.2-0.1,0.4-0.3,0.6-0.5c0.1-0.2,0.2-0.4,0.3-0.7c0.2-1.8-0.5-5.5-0.8-6.2
	C409.6,213.2,368.5,215.9,368.5,215.9z"/>
<path class="st5" d="M368.5,215.9l-2.1-1.2c0,0-1,4.1-0.7,7c0,0.3,0.2,0.6,0.3,0.8c0.2,0.2,0.5,0.4,0.7,0.5
	c4.8,1.2,27.6,6.3,43.3-0.9c0.2-0.1,0.4-0.3,0.6-0.5c0.1-0.2,0.2-0.4,0.3-0.7c0.2-1.8-0.5-5.5-0.8-6.2
	C409.6,213.2,368.5,215.9,368.5,215.9z"/>
<path class="st4" d="M388.3,219.7c12.1,0,21.9-2.2,21.9-4.9c0-2.7-9.8-4.9-21.9-4.9c-12.1,0-21.9,2.2-21.9,4.9
	C366.4,217.5,376.2,219.7,388.3,219.7z"/>
<path class="st4" d="M376.8,205.6l-2.1-1.2c0,0-1,4.1-0.7,7c0,0.3,0.2,0.6,0.3,0.8c0.2,0.2,0.5,0.4,0.7,0.5
	c4.8,1.2,27.6,6.3,43.3-0.9c0.2-0.1,0.4-0.3,0.6-0.5c0.1-0.2,0.2-0.4,0.3-0.7c0.2-1.8-0.5-5.5-0.8-6.2
	C417.9,202.9,376.8,205.6,376.8,205.6z"/>
<path class="st5" d="M376.8,205.6l-2.1-1.2c0,0-1,4.1-0.7,7c0,0.3,0.2,0.6,0.3,0.8c0.2,0.2,0.5,0.4,0.7,0.5
	c4.8,1.2,27.6,6.3,43.3-0.9c0.2-0.1,0.4-0.3,0.6-0.5c0.1-0.2,0.2-0.4,0.3-0.7c0.2-1.8-0.5-5.5-0.8-6.2
	C417.9,202.9,376.8,205.6,376.8,205.6z"/>
<path class="st4" d="M396.6,209.3c12.1,0,21.9-2.2,21.9-4.9c0-2.7-9.8-4.9-21.9-4.9c-12.1,0-21.9,2.2-21.9,4.9
	C374.7,207.1,384.5,209.3,396.6,209.3z"/>
<path class="st4" d="M380.9,193.2l-2.1-1.2c0,0-1,4.1-0.7,7c0,0.3,0.2,0.6,0.3,0.8c0.2,0.2,0.5,0.4,0.7,0.5
	c4.8,1.2,27.6,6.3,43.3-0.9c0.2-0.1,0.4-0.3,0.6-0.5c0.1-0.2,0.2-0.4,0.3-0.7c0.2-1.8-0.5-5.5-0.8-6.2
	C422,190.5,380.9,193.2,380.9,193.2z"/>
<path class="st5" d="M380.9,193.2l-2.1-1.2c0,0-1,4.1-0.7,7c0,0.3,0.2,0.6,0.3,0.8c0.2,0.2,0.5,0.4,0.7,0.5
	c4.8,1.2,27.6,6.3,43.3-0.9c0.2-0.1,0.4-0.3,0.6-0.5c0.1-0.2,0.2-0.4,0.3-0.7c0.2-1.8-0.5-5.5-0.8-6.2
	C422,190.5,380.9,193.2,380.9,193.2z"/>
<path class="st4" d="M400.7,197c12.1,0,21.9-2.2,21.9-4.9c0-2.7-9.8-4.9-21.9-4.9c-12.1,0-21.9,2.2-21.9,4.9
	C378.8,194.8,388.6,197,400.7,197z"/>
<linearGradient id="SVGID_1_" gradientUnits="userSpaceOnUse" x1="447.7773" y1="-451.2126" x2="447.7773" y2="-182.6187" gradientTransform="matrix(1 0 0 -1 2.131348e-04 -161.8899)">
	<stop  offset="0" style="stop-color:#808080;stop-opacity:0.25"/>
	<stop  offset="0.5351" style="stop-color:#808080;stop-opacity:0.12"/>
	<stop  offset="1" style="stop-color:#808080;stop-opacity:0.1"/>
</linearGradient>
<path class="st6" d="M512.8,277.9c-3-0.1-3.2-1.3-7.1-3.3c-2.2-1.2-5.6-4.5-8.1-7.2c-0.2-0.2-0.4-0.4-0.6-0.6c0.7,0,1,0,1,0
	s-1-8.6-0.1-10.6c0.9-2,0.2-14.2,0.2-14.2s0.5-9.2-0.4-11.4c-1-2.1,0.3-15.9,0.3-15.9s0.9-8.2,1.1-24.8c0.2-16.7-9.6-17.2-9.6-17.2
	s-1.3-0.1-3.3-0.3c-0.2,0-0.4,0-0.6-0.1c1.3-2.7,2-4.7,2-4.7s-1.6-15.6-2.1-18.3c-0.4-2.7-3-13.8-3-13.8s-1.8-4.7-2.9-8.1
	c-1.1-3.3-4.4-7.2-4.4-7.2s-5.9-11.6-7.5-13.3c-0.8-0.8-1.8-1.8-2.7-2.7c-0.2-0.2-0.3-0.3-0.5-0.4c0.2-1.2,0.4-2.4,0.4-3.7
	c0,0-6.1-6-6.5-7.5c-0.4-1.5-6.2-7.1-6.2-7.1s-3.3-6-7-6.1c-1.7-0.1-3.5,0-5.2,0.2c0.8-2.8,1.7-5.8,2.5-8.3c0.1-0.3,0.2-0.6,0.3-0.8
	c3-2,5.3-4.8,6.7-8.1c0.1-0.2,0.1-0.4,0.2-0.5c0,0,0.1,0,0.1,0c0.2,0,0.3,0,0.5,0c1.2-0.2,2.2-1.6,1.7-2.7c0,0.1,0.1,0.1,0.2,0.1
	c0.1,0,0.1,0.1,0.2,0c0.4,0,0.9-0.6,1-1.1c0-0.1,0-0.2,0-0.3c0-0.1,0-0.2,0-0.3c0-0.1,0-0.2,0-0.3c0-0.1,0-0.2,0-0.3
	c0-0.1,0-0.2,0-0.3c0-0.1,0-0.2,0-0.4c0-0.1,0-0.2,0-0.3c0-0.1,0-0.3,0-0.4c0-0.1,0-0.1,0-0.2l0,0c-0.1-0.6-0.2-1.2-0.4-1.7
	c-0.6-2-1.9-4-1.4-6c0,0,0,0,0-0.1l0,0c0.4-1.6,1.8-2.7,2.6-4.1c0.1-0.1,0.1-0.3,0.2-0.4c0,0,0,0,0-0.1c0.1-0.1,0.1-0.2,0.1-0.3
	c0-0.1,0.1-0.1,0.1-0.2c0-0.1,0.1-0.2,0.1-0.3c0-0.1,0.1-0.2,0.1-0.3c0-0.1,0-0.2,0.1-0.3c0-0.1,0-0.2,0.1-0.3c0-0.1,0-0.1,0-0.2
	c0-0.1,0-0.2,0-0.4c0-0.1,0-0.1,0-0.2c0-0.1,0-0.3,0-0.4c0-0.1,0-0.1,0-0.2c0-0.1,0-0.3,0-0.4c0,0,0-0.1,0-0.1c0-0.2,0-0.3,0-0.5
	c0,0,0,0,0-0.1l0,0c-0.2-1.4-0.7-2.6-1.6-3.7c-1-1.1-2.2-2-3.5-2.6c-1.4-0.6-2.8-0.9-4.3-0.8c-0.8,0.1-1.6,0.1-2.5,0
	c-1.4-0.2-2.5-1.1-3.6-1.9c-3-2.3-6.1-4.7-9.1-7c-1-0.9-2.2-1.6-3.4-2.1c-1.3-0.4-2.8-0.3-3.8,0.7c-1.7,1.7-0.6,4.6-1.3,6.9
	c-0.6,2-2.5,3.3-4.5,4c-2,0.7-4.1,0.8-6.1,1.3c-0.6,0.1-1.2,0.4-1.6,0.8c-0.5,0.6-0.8,1.5-0.7,2.3c0,2,0.5,4,1.4,5.8
	c0.4,0.7,0.8,1.5,1.3,2.2c0,0.1,0.1,0.1,0.1,0.2c0,0.1,0.1,0.2,0.1,0.3c0.1,0.1,0.1,0.3,0.2,0.4c0,0.1,0.1,0.1,0.1,0.2
	c0,0.1,0.1,0.2,0.1,0.3c0,0.1,0,0.1,0.1,0.2c0,0.1,0.1,0.2,0.1,0.4c0.2,0.7,0.2,1.4,0.1,2.1c-0.3,1.2-1.2,2-2,2.9
	c-0.6,0.7-1.1,1.6-1.3,2.5l0,0c0,0.2-0.1,0.4,0,0.7c0,0,0,0.1,0,0.1c0,0,0,0.1,0,0.1c0,0,0,0.1,0,0.1c0,0,0,0.1,0.1,0.1
	c0,0.1,0.1,0.1,0.1,0.2c0,0,0,0,0.1,0.1c0,0,0.1,0.1,0.1,0.1c0,0,0.1,0,0.1,0c0.1,0,0.1,0,0.2,0.1c0,0,0,0,0.1,0c0.1,0,0.2,0,0.4,0
	c0,0,0.1,0,0.1,0c0.1,0,0.2,0,0.3,0c0,0,0.1,0,0.1,0c0.2,0,0.3-0.1,0.5-0.1c0.6-0.2,1.2-0.4,1.8-0.7c0,0.1,0,0.1,0,0.2
	c0,0.1,0,0.2,0,0.3c0,2.1,0.4,4.2,1.2,6.2c1.2,3.1,3.1,5.8,5.7,7.8c0,0.2-0.1,0.4-0.1,0.6c-0.5,2.6-1.6,5.2-2.3,5
	c-0.7-0.1-1.3-0.2-2-0.2c-0.2,0-0.4,0-0.6,0l0,0c-0.6-0.1-1.2-0.1-1.8,0c-0.3,0-0.5,0-0.8-0.1c-1.8-0.6-3.6-0.7-5.4-0.3
	c-3.8,0.8-9.5,2.2-11.1,3.9c-2.4,2.6-5.9,5.1-9.8,15.8c0,0-2,6.6-3.5,7.4c0.3-0.2,0.7-0.3,1-0.5c-0.2,0.4-0.5,0.7-0.8,0.9
	c0.6-0.3,1.1-0.5,1.7-0.7c-1.2,7,0.6,27,0.6,27s-1.4,3.5,0.4,5.5c1.1,1.2,1.7,3.1,2,4.4c-0.1,0.1-0.2,0.3-0.3,0.4v0
	c-1,1.5-2.3,3.5-3.1,4.6c-1.5,1.9-1.1,8.1-1.1,8.1s-0.3,2.9-1.4,4c-1.1,1.1-0.9,5.1-0.9,5.1l-2.8,10.4c0,0-2.6,2.4-2.6,3.4
	c0,1.1-2.1,4.1-2.1,4.1s-3.2,5.2,0,4.4c1.2-0.3,2.2-0.9,3.2-1.6l0,0.1c0,0.2,0,0.4,0,0.6c-0.1,5.6,0.5,13.5,4.7,13.5
	c6.4,0,23,7.6,23,7.6c3.4,2.6,7.9,1.7,7.9,1.7s-8.1,8.1-7.8,11.4c0.2,3.3-4.6,8.8-4.6,8.8L385,253.6c0.1,2,0.4,4,1.1,5.9
	c-0.1,0.1-0.1,0.1-0.2,0.2c-5.7,5.2-6.2,15.5-6.2,15.5l-1.3,5.3l19.8,8.7c0,0,25.7,0.5,30.1-0.6c4.5-1.2,3.5-6.1-2.4-7.1
	c-5.9-1-7.3-3.5-9.2-4.7c-1.3-0.8-6-6-8.9-9.2c0,0-0.1-0.1-0.1-0.1l0.7-3.7c1.3-0.6,3.3-7.1,3.3-7.1s0-2.6,1.3-3.3
	c1.3-0.8,4-8.5,4-8.5s5.9-9.8,5.5-11.1c-0.3-1.3,4.2-7.8,4.2-7.8s7.7-7.5,7.4-8.9c-0.3-1.3,6.2-8.2,6.2-8.2c2.4-1.8,4.3-4.1,5.8-6.7
	c0.6-0.1,1.2-0.2,1.9-0.3c8.5-1.4,22.7-3.9,24.3-4.6c2.2-1,1.7,3.3,0.9,7c-0.9,3.7-1.5,21.2-0.5,23.4c1,2.3,0.5,5.9,0.5,5.9
	l-1.3,19.7l0.9,4.2c0,0-2.9,2.4-1.7,3.8c1.2,1.4,0.1,7.4,0.1,7.4c0.1,0,0.2-0.1,0.4-0.1c-0.1,0.2-0.2,0.5-0.3,0.7
	c-1.7,4.8-0.7,12.7-0.7,12.7v6.2c0,0,30.1,0.5,36.8,0.5c6.6,0,15.8-3.2,16.3-5.8C524,280.2,515.9,278,512.8,277.9z M427.1,166
	l-2,0.2C425.8,166.1,426.4,166.1,427.1,166z M439.1,83.6c0.3-1.2,0.6-2.6,1-4L439.1,83.6z M442.9,169.1c-1.9,0.7-4,0.7-5.9,0l0,0
	c0,0,0.1-7.5,1-10.6c0.9-3.1,2.1-8.8,2.1-8.8s1-7.8,2-11.4c1-3.5,4.8-23.3,6.7-24.6c2-1.3,3,1,3,1s0.3,0,0.8-0.1
	c0.1,0.2,0.2,0.4,0.3,0.7c2.3,4.7,9.1,14.3,9.1,14.3c2,1.2,3.7,2.9,5,4.9c1.8,3.1,2.4,10.4,2.4,10.4s4.1,16.2,6.1,18.5
	c1,1.1,0.5,1.8-0.1,2.2c-1.4,0.8-2.6,1.9-3.4,3.2c-0.3,0.4-0.6,0.9-0.9,1.4c-0.7-0.2-1.4-0.4-2-0.5
	C463.8,167.8,445.8,167.8,442.9,169.1z"/>
<path class="st7" d="M469.7,281.8v6.2c0,0,29.5,0.5,36,0.5c6.5,0,15.4-3.2,16-5.8c0.5-2.6-7.5-4.7-10.4-4.8c-3-0.1-3.1-1.3-6.9-3.3
	c-2.2-1.1-5.4-4.5-7.9-7.1c-1.9-2.1-3.3-3.7-3.3-3.7s-15.9-0.3-20.4,2.2c-1.1,0.6-1.8,1.7-2.3,3.2
	C468.7,274,469.7,281.8,469.7,281.8z"/>
<path class="st5" d="M470.4,269.3c3.3-1.2,22.8-1.6,26-1.7c-1.9-2.1-3.3-3.7-3.3-3.7s-15.9-0.3-20.4,2.2
	C471.6,266.7,470.9,267.8,470.4,269.3z"/>
<path class="st8" d="M384.8,170.7c0,0,0.6,0.4,1.7,1c0.2,0.1,0.4,0.3,0.6,0.4c0.7,0.4,1.5,0.9,2.5,1.5c13.4,8.1,49.9,30,51.9,29.8
	c0.5,0,2.1-0.3,4.3-0.6c0.6-0.1,1.2-0.2,1.8-0.3c8.4-1.4,22.3-3.9,23.8-4.6c2.1-1,1.7,3.3,0.9,6.9c-0.9,3.6-1.5,21-0.5,23.2
	c1,2.2,0.5,5.9,0.5,5.9l-1.3,19.5l0.9,4.2c0,0-2.9,2.3-1.7,3.7c1.2,1.4,0.1,7.4,0.1,7.4c3.4-1.3,26.5-1.7,26.5-1.7s-1-8.5-0.1-10.5
	c0.9-2,0.2-14.1,0.2-14.1s0.5-9.2-0.4-11.3c-1-2.1,0.3-15.8,0.3-15.8s0.9-8.1,1.1-24.6c0.2-16.5-9.4-17.1-9.4-17.1s-1.3-0.1-3.2-0.3
	c-3.8-0.4-10.1-1.1-14.3-2c-0.9-0.2-1.7-0.4-2.6-0.7c-5.2-1.8-22.8-1.8-25.7-0.6c-1.8,0.7-3.9,0.7-5.7,0l0,0l-2.2-3.6l-21.4,1.8
	l-2.3,0.2l-21,1.8l-1.4,0.1L384.8,170.7z"/>
<path class="st5" d="M470.4,187.1c6.2,3,12.1-7.7,14.9-13.8c-3.8-0.4-10.1-1.1-14.3-2C468.2,176,464.5,184.2,470.4,187.1z"/>
<path class="st9" d="M451.8,114.5c0.1,0.7,0.4,1.4,0.8,2.1c2.3,4.7,8.9,14.2,8.9,14.2c2,1.2,3.7,2.9,4.9,4.9
	c1.8,3.1,2.3,10.3,2.3,10.3s4,16.1,6,18.3c1,1.1,0.5,1.8-0.1,2.2c-1.4,0.8-2.5,1.8-3.4,3.1c-2.8,4.5-7.2,13.4-1,16.5
	c8.5,4.2,16.5-17.6,16.5-17.6s-1.6-15.5-2-18.1c-0.4-2.7-3-13.6-3-13.6s-1.8-4.7-2.9-8c-1.1-3.3-4.3-7.1-4.3-7.1s-5.7-11.5-7.3-13.2
	c-0.7-0.8-1.8-1.8-2.7-2.6c-1-1-1.9-1.7-1.9-1.7S451.7,112,451.8,114.5z"/>
<path class="st7" d="M379.6,280.6l19.4,8.6c0,0,25.1,0.5,29.5-0.6c4.4-1.2,3.4-6.1-2.3-7c-5.7-1-7.1-3.5-9-4.7
	c-1.3-0.8-5.9-5.9-8.7-9.1c-1.4-1.6-2.3-2.7-2.3-2.7s-3.7-9.9-14.1-7.7c-1.9,0.4-3.6,1.3-5,2.6c-5.6,5.2-6,15.4-6,15.4L379.6,280.6z
	"/>
<path class="st5" d="M387.2,172.1c0.7,0.4,1.5,0.9,2.5,1.5c13.4,8.1,49.9,30,51.9,29.8c0.5,0,2.1-0.3,4.3-0.6
	c0.6-0.1,1.2-0.2,1.8-0.3c0,0,0-0.1,0.1-0.1c1.1-1.9,1.9-3.9,2.4-6c2.2-8.5-8.8-15-8.8-15l-2.3-1.8c-2.7-4.5-21.8-8.7-21.8-8.7
	l-2.5-1.7l-1.3-0.9l-0.3-0.2l-3-2l-15,1.1l-4.5,2.9l-0.5,0.3l-1.7,1.1L387.2,172.1z"/>
<path class="st5" d="M386.9,260c4.1,14.1,21.1,9.5,21.1,9.5l0.3-1.8c-1.4-1.6-2.3-2.7-2.3-2.7s-3.7-9.9-14.1-7.7
	C390.1,257.7,388.3,258.7,386.9,260z"/>
<path class="st8" d="M382.5,196c6.3,0,22.5,7.6,22.5,7.6c3.3,2.6,7.8,1.7,7.8,1.7s-7.9,8-7.7,11.3c0.2,3.3-4.5,8.7-4.5,8.7
	l-14.5,28.7c1.1,20.4,21.9,14.7,21.9,14.7l0.9-4.8c1.3-0.6,3.2-7,3.2-7s0-2.6,1.3-3.3s3.9-8.4,3.9-8.4s5.7-9.7,5.4-11
	c-0.3-1.3,4.2-7.8,4.2-7.8s7.6-7.5,7.2-8.8c-0.3-1.3,6.1-8.2,6.1-8.2c2.3-1.8,4.2-4,5.7-6.6c1.1-1.9,1.9-3.9,2.4-6
	c1.8-6.9-5-12.4-7.8-14.3c-0.7-0.5-1.1-0.7-1.1-0.7l-2.3-1.8c-1.2-2-5.8-4-10.5-5.6c-3.4-1.1-6.8-2-9-2.6c-1.4-0.4-2.3-0.6-2.3-0.6
	l-2.5-1.7l-0.9-0.6l-0.8-0.5l-3-2l-6.7,0.5l-8.3,0.6l-4.5,2.9l-2.1,1.4l-8.3,5.4c0,0-0.2,2.1-0.3,4.8c0,0.2,0,0.4,0,0.7
	C377.8,188.1,378.4,196,382.5,196z"/>
<path class="st9" d="M414.5,76.6l2.2,8c0,0,3.9,13.7,4.4,14.7c0.4,1,10.8,10.7,11.2,10.9c0.4,0.2,6,3.4,6,3.4s0.4-17.6,0-22.7
	c0-1.1,0.1-2.2,0.3-3.3c0.7-4,2.4-9.9,3.8-14.4c1.2-3.8,2.2-6.6,2.2-6.6s-24.9-1.1-24.1,1.4c0.3,0.9,0.2,2.5-0.1,4
	c-0.5,2.6-1.6,5.1-2.2,4.9c-0.6-0.1-1.3-0.2-2-0.2C415.4,76.6,414.5,76.6,414.5,76.6z"/>
<path class="st5" d="M420.5,71.9c3,2.5,6.8,4,10.8,4.3c4,0.2,7.9-0.8,11.2-3c1.2-3.8,2.2-6.6,2.2-6.6s-24.9-1.1-24.1,1.4
	C420.9,68.8,420.8,70.3,420.5,71.9z"/>
<path class="st9" d="M450.7,57.1c0,2-0.3,3.9-0.9,5.8c-0.2,0.5-0.3,1-0.5,1.4c-1.4,3.4-3.9,6.3-6.9,8.3c-3.1,2-6.7,3-10.4,3
	c-3.7-0.1-7.3-1.3-10.3-3.4c-3-2.1-5.3-5.1-6.6-8.6c-0.7-2-1.1-4-1.2-6.1c0-0.1,0-0.2,0-0.3c0-4.9,1.9-9.6,5.4-13
	c3.5-3.5,8.1-5.4,13-5.4c4.9,0,9.6,1.9,13,5.4C448.8,47.5,450.7,52.2,450.7,57.1L450.7,57.1z"/>
<path class="st5" d="M414.5,76.6l2.2,8c0,0,3.9,13.7,4.4,14.7c0.4,1,10.8,10.7,11.2,10.9c0.4,0.2,6,3.4,6,3.4s0.4-17.6,0-22.7
	c0-1.1,0.1-2.2,0.3-3.3l-1.4,5.9l0.1,11.8l0.9,0.6l-1.9,2.9v-2.1c0,0-6.8-6.6-7.9-9.4c-1.1-2.8-4.9-7.8-4.9-7.8s-4.4-7.3-4.5-8.6
	c-0.1-1-1.9-3.3-2.7-4.3C415.4,76.6,414.5,76.6,414.5,76.6z"/>
<path class="st5" d="M451.8,114.5c0.1,0.7,0.4,1.4,0.8,2.1c2.3-0.2,10.3-1.7,12-10.8c-1-1-1.9-1.7-1.9-1.7S451.7,112,451.8,114.5z"
	/>
<path class="st5" d="M377.9,182.6c2.1-1.5,4.2-3.6,5.4-4.2c1.8-0.9,4.6-3.6,4.6-3.6s0.7-0.5,1.8-1.1c2-1.2,5.2-2.8,7.7-3
	c2.2-0.2,9.6-0.7,15.4-1c4.2-0.3,7.6-0.5,7.6-0.5s6.9-2.5,9.9-0.9c2.1,1.1,4.4,1.9,6.7,2.5c0,0,0-0.2,0-0.6l0,0l-2.2-3.6l-23.6,2
	l-3-2l-15,1.1l-4.5,2.9l-3.8,0.3c0,0,0.6,0.4,1.7,1l-8.3,5.4C378.2,177.1,378,179.5,377.9,182.6z"/>
<path class="st7" d="M374.8,183.5c1.1-0.3,2.2-0.9,3.1-1.6v0c2.1-1.5,4.2-3.6,5.4-4.2c1.8-0.9,4.6-3.6,4.6-3.6s5.6-3.8,9.5-4.2
	c1-0.1,3.2-0.2,5.9-0.4c2.7-0.2,5.8-0.4,8.7-0.6c1.6-0.1,3.2-0.2,4.5-0.3c2.4-0.1,3.9-0.2,3.9-0.2s6.9-2.5,9.9-0.9
	c2.1,1.1,4.4,1.9,6.7,2.5c0,0,0.1-7.5,1-10.5c0.9-3.1,2-8.7,2-8.7s1-7.8,1.9-11.3c1-3.5,4.7-23.1,6.6-24.4c1.9-1.3,3,1,3,1
	s12.8-0.2,13-14.3c0,0-6-6-6.4-7.5c-0.4-1.5-6.1-7-6.1-7s-3.2-6-6.8-6.1c-1.7-0.1-3.4,0-5.1,0.2L437,93.9l0.1,11.8l0.9,0.6l-1.9,2.9
	v-2.1c0,0-6.8-6.6-7.9-9.4c-1.1-2.8-4.9-7.8-4.9-7.8s-4.4-7.3-4.5-8.6c-0.1-1.3-3.1-4.7-3.1-4.7c-0.6-0.1-1.2-0.1-1.8,0
	c-0.3,0-0.5,0-0.8-0.1c-1.7-0.5-3.5-0.7-5.3-0.3c-3.7,0.8-9.3,2.2-10.8,3.8c-2.3,2.6-5.8,5-9.6,15.7l20.7,7.5l-1.8,3.4l-16.4,31.3
	c0,0-0.5,0.9-1.3,2.1v0c-1,1.5-2.2,3.5-3.1,4.6c-1.5,1.9-1.1,8-1.1,8s-0.3,2.9-1.4,3.9c-1.1,1.1-0.9,5-0.9,5l-2.8,10.3
	c0,0-2.6,2.3-2.6,3.4c0,1.1-2,4-2,4S371.7,184.2,374.8,183.5z"/>
<path class="st5" d="M483.8,191.2c0,0-6.7,2.2-8.5,5.4C473.5,199.8,483.8,191.2,483.8,191.2z"/>
<path class="st5" d="M480.4,184.1c-0.2,0.3-9.2,9.3-8.6,11.5C472.4,197.8,480.4,184.1,480.4,184.1z"/>
<path class="st5" d="M431.1,190.5c0,0-10,4.7-10.9,6.8C419.4,199.4,431.1,190.5,431.1,190.5z"/>
<path class="st5" d="M430.5,196.6c0,0-9,3.8-10.3,4.8C419,202.4,430.5,196.6,430.5,196.6z"/>
<path class="st5" d="M426.3,204.8c0,0-4,3-6.2,0.6C417.9,203.1,426.3,204.8,426.3,204.8z"/>
<path class="st5" d="M441.4,127c-0.2,0.3-13.5,24.3-17,26.1C420.8,154.9,441.4,127,441.4,127z"/>
<path class="st5" d="M440.7,136.1c0,0.5-13,28.3-15.1,28.7C423.5,165.1,440.7,136.1,440.7,136.1z"/>
<path class="st5" d="M391.3,154c0,0-6.3,13.4-8.7,14.2C380.1,168.9,391.3,154,391.3,154z"/>
<path class="st5" d="M390.2,148c0,0-2.2,4.7-3.5,4.7C385.5,152.7,390.2,148,390.2,148z"/>
<path class="st5" d="M450.7,57.1c0,2-0.3,3.9-0.9,5.8c-0.2,0.5-0.3,1-0.5,1.4c-0.9-0.1-1.8-0.5-2.6-1.1c-0.8-0.5-1.5-1.2-1.9-2.1
	c-0.4-0.9-0.7-1.8-0.9-2.7c-0.4-1-1.1-1.9-2-2.6c-0.9-0.7-1.9-1.1-3-1.2c0.6,1-0.4,2.5-1.6,2.7c-1.2,0.2-2.4-0.5-3.2-1.4
	c-0.8-0.9-1.4-2-2.2-2.9c-0.8-0.9-2-1.6-3.2-1.4c-1.1,0.2-1.9,1-2.8,1.6c-0.9,0.6-2.1,1-3,0.4c-0.5-0.4-0.7-1-1.2-1.4
	c-1.2-1-3,0-3.9,1.3c-1.3,2-2.2,3.2-3.9,4.1c0-0.1,0-0.2,0-0.3c0-4.9,1.9-9.6,5.4-13c3.5-3.5,8.1-5.4,13-5.4c4.9,0,9.6,1.9,13,5.4
	C448.8,47.5,450.7,52.2,450.7,57.1z"/>
<path class="st7" d="M417.8,52.9c0.9-1.3,2.7-2.3,3.9-1.3c0.5,0.4,0.7,1,1.2,1.4c0.9,0.6,2.1,0.2,3-0.4c0.9-0.6,1.7-1.4,2.8-1.6
	c1.2-0.2,2.4,0.5,3.2,1.4c0.8,0.9,1.4,2,2.2,2.9c0.8,0.9,2,1.6,3.2,1.4c1.2-0.2,2.2-1.6,1.6-2.7c1.1,0.1,2.2,0.6,3,1.2
	c0.9,0.7,1.6,1.6,2,2.6c0.3,0.9,0.6,1.8,0.9,2.7c0.5,0.8,1.1,1.5,1.9,2.1c1,0.7,2.2,1.3,3.4,1.1c1.2-0.2,2.2-1.6,1.6-2.7
	c0.4,0.6,1.2-0.2,1.3-0.9c0.3-1.5,0.2-3-0.2-4.5c-0.6-2-1.8-3.9-1.3-6c0.4-1.6,1.7-2.7,2.6-4.1c1.5-2.5,1.1-5.9-0.7-8.2
	c-0.9-1.1-2.1-2-3.4-2.6c-1.3-0.6-2.8-0.8-4.2-0.8c-0.8,0.1-1.6,0.1-2.4,0c-1.3-0.2-2.5-1.1-3.5-1.9l-8.9-7c-1-0.9-2.1-1.6-3.4-2
	c-1.3-0.4-2.8-0.3-3.7,0.7c-1.7,1.7-0.6,4.5-1.3,6.8c-0.6,2-2.4,3.3-4.4,4c-1.9,0.7-4,0.8-6,1.3c-0.6,0.1-1.1,0.4-1.6,0.7
	c-0.5,0.6-0.8,1.4-0.7,2.3c0,2,0.5,4,1.4,5.8c1,2,2.7,4,2.1,6.2c-0.3,1.1-1.2,2-2,2.9c-1.7,1.9-2.3,4.8,0.9,3.8
	C415.2,56.7,416.1,55.4,417.8,52.9z"/>
<g class="st10">
	<path class="st5" d="M453,58.1c-0.1,0.7-0.9,1.5-1.3,0.9c0.6,1.1-0.5,2.4-1.6,2.7c-1.2,0.2-2.4-0.4-3.4-1.1
		c-0.8-0.5-1.5-1.2-1.9-2.1c-0.4-0.9-0.7-1.8-0.9-2.7c-0.4-1-1.1-1.9-2-2.6c-0.9-0.7-1.9-1.1-3-1.2c0.6,1-0.4,2.5-1.6,2.7
		c-1.2,0.2-2.4-0.5-3.2-1.4c-0.8-0.9-1.4-2-2.2-2.9c-0.8-0.9-2-1.6-3.2-1.4c-1.1,0.2-1.9,1-2.8,1.6c-0.9,0.6-2.1,1-3,0.4
		c-0.5-0.4-0.7-1-1.2-1.4c-1.2-1-3,0-3.9,1.3c-1.7,2.5-2.6,3.8-5.6,4.8c-1,0.3-1.6,0.2-2-0.1c-0.7,1.5-0.4,2.9,2,2.2
		c3.1-1,3.9-2.2,5.6-4.8c0.9-1.3,2.7-2.3,3.9-1.3c0.5,0.4,0.7,1,1.2,1.4c0.9,0.6,2.1,0.2,3-0.4c0.9-0.6,1.7-1.4,2.8-1.6
		c1.2-0.2,2.4,0.5,3.2,1.4c0.8,0.9,1.4,2,2.2,2.9c0.8,0.9,2,1.6,3.2,1.4c1.2-0.2,2.2-1.6,1.6-2.7c1.1,0.1,2.2,0.6,3,1.2
		c0.9,0.7,1.6,1.6,2,2.6c0.3,0.9,0.6,1.8,0.9,2.7c0.5,0.8,1.1,1.5,1.9,2.1c1,0.7,2.2,1.3,3.4,1.1c1.2-0.2,2.2-1.6,1.6-2.7
		c0.4,0.6,1.2-0.2,1.3-0.9c0.2-0.9,0.2-1.9,0.1-2.8C453.1,57.6,453.1,57.8,453,58.1z"/>
	<path class="st5" d="M413.2,48.9C413.2,48.8,413.2,48.8,413.2,48.9c0.6-2.2-1-4.3-2.1-6.3c-0.7-1.4-1.2-2.9-1.3-4.5
		c0,0.3-0.1,0.6-0.1,0.8c0,2,0.5,4,1.4,5.8C411.8,46.1,412.8,47.4,413.2,48.9z"/>
	<path class="st5" d="M454,43.5c-0.8,1.4-2.2,2.6-2.6,4.1c-0.1,0.7-0.1,1.4,0,2c0.4-1.6,1.7-2.7,2.5-4.1c0.8-1.4,1.1-2.9,0.8-4.5
		C454.7,41.9,454.4,42.7,454,43.5z"/>
</g>
<path class="st5" d="M388.5,139.8L388.5,139.8c0.1,0.6,0.2,1.2,0.3,1.8c0,0,8.4,19.7,9.5,20.9c0.3,0.4,1.6,2.1,3.1,4.4
	c0.6,0.8,1.2,1.7,1.8,2.6c3.2,4.8,6.8,10.2,6.8,10.2l7.9,6.9c0,0,17.1,1.4,22.6-4.2c-0.7-0.5-1.1-0.7-1.1-0.7l-2.3-1.8
	c-1.2-2-5.8-4-10.5-5.6c-4.3,0-7.8,0.4-7.8,0.4l-1.1-3l-1.2-3.1l-6-15.7c0,0-3.8-19.8-5.1-20.8s-1-3.9-1-3.9s2.3-8.4,1.5-9.6
	c-0.9-1.2,1.4-9.8,1.4-9.8c-0.2-0.8-0.6-1.6-1-2.4l-16.4,31.3C389.8,137.8,389.3,138.7,388.5,139.8z"/>
<path class="st9" d="M407.5,108.3c0,0-2.2,8.6-1.4,9.8c0.9,1.2-1.5,9.6-1.5,9.6s-0.3,3,1,3.9c1.3,1,5.1,20.8,5.1,20.8l8.2,21.7
	c0,0,25.8-2.6,23.2,5.5c-2.7,8.1-24,6.4-24,6.4l-7.9-6.9c0,0-10.6-16.1-11.7-17.3c-1.1-1.2-9.5-20.9-9.5-20.9s-0.4-3.9-2.2-6
	c-1.8-2-0.4-5.4-0.4-5.4s-2.2-25.8,0.1-28.9C388.9,97.6,405,99,407.5,108.3z"/>
<path class="st5" d="M394.3,92.1l-6.7,4c0,0-1.9,6.5-3.4,7.4c0,0,13.4-7.5,23.5,9.7c0,0-0.3-2.2,1.1-3.3c1.4-1.1,1.1-5.6,1.1-5.6
	c0.4-0.7,0.7-1.5,1-2.2C411.8,99.6,406.8,86.2,394.3,92.1z"/>
<path class="st7" d="M394.1,91.6l-6.7,4c0,0-1.9,6.5-3.4,7.4c0,0,13.4-7.5,23.5,9.7c0,0-0.3-2.2,1.1-3.3c1.4-1.1,1.1-5.6,1.1-5.6
	c0.4-0.7,0.7-1.5,1-2.2C411.5,99.2,406.5,85.8,394.1,91.6z"/>
<path class="st4" d="M334.3,278.3c11,0,20-9.5,20-21.2s-9-21.2-20-21.2c-11,0-20,9.5-20,21.2S323.3,278.3,334.3,278.3z"/>
<path class="st5" d="M334.3,278.3c11,0,20-9.5,20-21.2s-9-21.2-20-21.2c-11,0-20,9.5-20,21.2S323.3,278.3,334.3,278.3z"/>
<path class="st4" d="M337.7,278.3c11,0,20-9.3,20-20.8c0-11.5-9-20.8-20-20.8c-11,0-20,9.3-20,20.8
	C317.8,269,326.7,278.3,337.7,278.3z"/>
<path class="st2" d="M48,268.7c13.6,0,24.7-1.9,24.7-4.2c0-2.3-11.1-4.2-24.7-4.2c-13.6,0-24.7,1.9-24.7,4.2
	C23.3,266.8,34.4,268.7,48,268.7z"/>
<path class="st2" d="M58.2,257.7c1.1-1,2-2.1,2.4-3.6c0.3-1.4-0.3-3.1-1.6-3.6c-1.5-0.6-3.1,0.5-4.4,1.5c-1.2,1.1-2.6,2.3-4.2,2
	c0.8-0.7,1.4-1.7,1.8-2.8c0.3-1.1,0.4-2.2,0.2-3.3c-0.1-0.5-0.3-0.9-0.6-1.2c-0.8-0.9-2.4-0.5-3.4,0.2c-3.2,2.2-4.1,6.6-4.1,10.5
	c-0.3-1.4-0.1-2.9-0.1-4.3c0-1.4-0.4-3-1.6-3.8c-0.8-0.4-1.6-0.6-2.5-0.6c-1.4-0.1-3,0.1-4,1.1c-1.2,1.3-0.9,3.5,0.2,4.9
	c1.1,1.4,2.7,2.3,4.2,3.3c1.2,0.7,2.2,1.7,3,2.8c0.1,0.2,0.2,0.3,0.2,0.5h9C54.7,260.5,56.5,259.2,58.2,257.7z"/>
<path class="st2" d="M271.3,237.3c1.1,1.5,2,3.2,2.7,4.9c0.2,0.4,0.4,0.9,0.5,1.4c2.7,8-1.6,17.5-2.8,16.5c-1.2-1-5-2.9-5.7-0.3
	c-0.7,2.7-3.4,5.4-3.4,5.4c-4.9,4.9-9.3-0.4-12.2-5.9c-0.9-1.8-1.8-3.7-2.5-5.6c-0.6-1.7-1-2.9-1-2.9l20.4-17.4
	C267.3,233.5,269.2,234.4,271.3,237.3z"/>
<path class="st2" d="M239.2,248.4c1.1,1.5,2,3.2,2.7,4.9c0.2,0.4,0.4,0.9,0.5,1.4c2.7,8-1.6,17.5-2.8,16.5c-1.2-1-5-2.9-5.7-0.3
	c-0.7,2.7-3.4,5.4-3.4,5.4c-4.9,4.9-9.3-0.4-12.2-5.9c-0.9-1.8-1.8-3.7-2.5-5.6c-0.6-1.7-1-2.9-1-2.9l20.4-17.4
	C235.2,244.6,237.2,245.5,239.2,248.4z"/>
<path class="st2" d="M174.8,263.7c-0.1,1.9-0.5,3.7-1.1,5.5c-0.1,0.5-0.3,0.9-0.5,1.4c-3,7.8-12.4,12.5-12.6,10.9
	c-0.3-1.6-1.9-5.4-4.2-3.8c-2.3,1.6-6.1,2-6.1,2c-6.9,0.7-6.9-6.3-5.7-12.3c0.4-2,1-4,1.6-5.9c0.6-1.7,1-2.8,1-2.8l26.7-0.4
	C174.1,258.2,175,260.2,174.8,263.7z"/>
<path class="st2" d="M140.3,255c-0.1,1.9-0.5,3.7-1.1,5.5c-0.1,0.5-0.3,0.9-0.5,1.4c-3,7.8-12.4,12.5-12.6,10.9
	c-0.3-1.6-1.9-5.4-4.2-3.8c-2.3,1.6-6.1,2-6.1,2c-6.9,0.7-6.9-6.3-5.7-12.3c0.4-2,1-4,1.6-5.9c0.6-1.7,1-2.8,1-2.8l26.7-0.4
	C139.5,249.5,140.5,251.5,140.3,255z"/>
<path class="st11" d="M271.3,237.3c1.1,1.5,2,3.2,2.7,4.9c0.2,0.4,0.4,0.9,0.5,1.4c2.7,8-1.6,17.5-2.8,16.5c-1.2-1-5-2.9-5.7-0.3
	c-0.7,2.7-3.4,5.4-3.4,5.4c-4.9,4.9-9.3-0.4-12.2-5.9c-0.9-1.8-1.8-3.7-2.5-5.6c-0.6-1.7-1-2.9-1-2.9l20.4-17.4
	C267.3,233.5,269.2,234.4,271.3,237.3z"/>
<path class="st11" d="M239.2,248.4c1.1,1.5,2,3.2,2.7,4.9c0.2,0.4,0.4,0.9,0.5,1.4c2.7,8-1.6,17.5-2.8,16.5c-1.2-1-5-2.9-5.7-0.3
	c-0.7,2.7-3.4,5.4-3.4,5.4c-4.9,4.9-9.3-0.4-12.2-5.9c-0.9-1.8-1.8-3.7-2.5-5.6c-0.6-1.7-1-2.9-1-2.9l20.4-17.4
	C235.2,244.6,237.2,245.5,239.2,248.4z"/>
<path class="st11" d="M174.8,263.7c-0.1,1.9-0.5,3.7-1.1,5.5c-0.1,0.5-0.3,0.9-0.5,1.4c-3,7.8-12.4,12.5-12.6,10.9
	c-0.3-1.6-1.9-5.4-4.2-3.8c-2.3,1.6-6.1,2-6.1,2c-6.9,0.7-6.9-6.3-5.7-12.3c0.4-2,1-4,1.6-5.9c0.6-1.7,1-2.8,1-2.8l26.7-0.4
	C174.1,258.2,175,260.2,174.8,263.7z"/>
<path class="st11" d="M140.3,255c-0.1,1.9-0.5,3.7-1.1,5.5c-0.1,0.5-0.3,0.9-0.5,1.4c-3,7.8-12.4,12.5-12.6,10.9
	c-0.3-1.6-1.9-5.4-4.2-3.8c-2.3,1.6-6.1,2-6.1,2c-6.9,0.7-6.9-6.3-5.7-12.3c0.4-2,1-4,1.6-5.9c0.6-1.7,1-2.8,1-2.8l26.7-0.4
	C139.5,249.5,140.5,251.5,140.3,255z"/>
<path class="st2" d="M325.6,137.7c0,71.5-24.2,129.4-135.7,129.4c-74.9,0-132.9-18.6-135.7-129.4C52.5,66.2,115,8.2,190,8.2
	S325.6,66.2,325.6,137.7z"/>
<path class="st11" d="M164.5,10.5L164.5,10.5C164.5,10.5,164.5,10.5,164.5,10.5L164.5,10.5z"/>
<path class="st11" d="M164.8,10.4c0.3-0.1,1-0.2,2-0.2l-2.2,0.3C164.6,10.5,164.7,10.5,164.8,10.4C164.7,10.4,164.8,10.4,164.8,10.4
	z"/>
<path class="st11" d="M265,63.3l-9.9,3.6c-5-6.8-10.5-13.3-16.3-19.4c-6.3-6.7-13.2-12.9-20.6-18.5c-25.4-18.8-45-19.3-51.4-18.8
	l14.9-1.8c14.1,2.4,27.6,7.3,40,14.5c8.7,5,16.7,10.9,24,17.8C258.6,52.7,265,63.3,265,63.3z"/>
<path class="st11" d="M175.5,70.1c0,0-13.1-43.6-2-55.5c0,0,17.4-5.9,30.5,27.8L175.5,70.1z"/>
<path class="st2" d="M241.7,29.3c0,0,34.7-29.5,50-24.1c0,0,12.4,13.6-13.2,39.1L241.7,29.3z"/>
<path class="st11" d="M241.7,29.3c0,0,34.7-29.5,50-24.1c0,0,12.4,13.6-13.2,39.1L241.7,29.3z"/>
<path class="st2" d="M349.8,170.6c0,38.4-27.6,68.8-53.5,68.8s-40.4-30.4-40.4-68.8c0-38.4,21.1-68.1,46.9-69.6
	C343.9,98.6,349.8,132.1,349.8,170.6z"/>
<path class="st11" d="M349.8,170.6c0,38.4-27.6,68.8-53.5,68.8s-40.4-30.4-40.4-68.8c0-38.4,21.1-68.1,46.9-69.6
	C343.9,98.6,349.8,132.1,349.8,170.6z"/>
<path class="st2" d="M294.7,187.4c4.8,0,8.7-5,8.7-11.1c0-6.1-3.9-11.1-8.7-11.1c-4.8,0-8.7,5-8.7,11.1
	C286,182.5,289.9,187.4,294.7,187.4z"/>
<path class="st2" d="M325.6,177.9c4.8,0,8.7-5,8.7-11.1c0-6.1-3.9-11.1-8.7-11.1c-4.8,0-8.7,5-8.7,11.1
	C316.9,172.9,320.8,177.9,325.6,177.9z"/>
<path class="st12" d="M247.4,33.5c0,2.5-0.6,4.9-1.7,7.2c-1.5,2.9-3.9,5.3-6.8,6.8c-6.3-6.7-13.2-12.9-20.6-18.5
	c0.7-2.3,1.8-4.3,3.4-6.1c1.4-1.5,3-2.7,4.9-3.6c1.9-0.8,3.9-1.3,5.9-1.3C240.7,18.1,247.4,25,247.4,33.5z"/>
</svg>
